solid ascii
  facet normal -9.992290e-001 3.925982e-002 -1.225889e-017
    outer loop
      vertex   3.197842e+000 -5.492137e-002 0.000000e+000
      vertex   3.197842e+000 -5.492137e-002 1.000000e+000
      vertex   3.200000e+000 8.572528e-017 0.000000e+000
    endloop
  endfacet
  facet normal -9.930685e-001 1.175374e-001 -3.649268e-017
    outer loop
      vertex   3.197842e+000 -5.492137e-002 0.000000e+000
      vertex   3.191382e+000 -1.095041e-001 1.000000e+000
      vertex   3.197842e+000 -5.492137e-002 1.000000e+000
    endloop
  endfacet
  facet normal -9.930685e-001 1.175374e-001 0.000000e+000
    outer loop
      vertex   3.197842e+000 -5.492137e-002 0.000000e+000
      vertex   3.191382e+000 -1.095041e-001 0.000000e+000
      vertex   3.191382e+000 -1.095041e-001 1.000000e+000
    endloop
  endfacet
  facet normal -9.807853e-001 1.950903e-001 0.000000e+000
    outer loop
      vertex   3.191382e+000 -1.095041e-001 1.000000e+000
      vertex   3.191382e+000 -1.095041e-001 0.000000e+000
      vertex   3.180659e+000 -1.634118e-001 1.000000e+000
    endloop
  endfacet
  facet normal -9.807853e-001 1.950903e-001 5.917731e-017
    outer loop
      vertex   3.180659e+000 -1.634118e-001 1.000000e+000
      vertex   3.191382e+000 -1.095041e-001 0.000000e+000
      vertex   3.180659e+000 -1.634118e-001 0.000000e+000
    endloop
  endfacet
  facet normal -9.624552e-001 2.714404e-001 0.000000e+000
    outer loop
      vertex   3.165740e+000 -2.163119e-001 1.000000e+000
      vertex   3.180659e+000 -1.634118e-001 0.000000e+000
      vertex   3.165740e+000 -2.163119e-001 0.000000e+000
    endloop
  endfacet
  facet normal -9.381913e-001 3.461171e-001 3.195575e-016
    outer loop
      vertex   3.146716e+000 -2.678784e-001 1.000000e+000
      vertex   3.165740e+000 -2.163119e-001 0.000000e+000
      vertex   3.146716e+000 -2.678784e-001 0.000000e+000
    endloop
  endfacet
  facet normal -9.081432e-001 4.186597e-001 0.000000e+000
    outer loop
      vertex   3.123705e+000 -3.177933e-001 1.000000e+000
      vertex   3.146716e+000 -2.678784e-001 0.000000e+000
      vertex   3.123705e+000 -3.177933e-001 0.000000e+000
    endloop
  endfacet
  facet normal -8.724960e-001 4.886212e-001 1.104643e-016
    outer loop
      vertex   3.096848e+000 -3.657490e-001 1.000000e+000
      vertex   3.123705e+000 -3.177933e-001 0.000000e+000
      vertex   3.096848e+000 -3.657490e-001 0.000000e+000
    endloop
  endfacet
  facet normal -8.314696e-001 5.555702e-001 0.000000e+000
    outer loop
      vertex   3.066312e+000 -4.114497e-001 1.000000e+000
      vertex   3.096848e+000 -3.657490e-001 0.000000e+000
      vertex   3.066312e+000 -4.114497e-001 0.000000e+000
    endloop
  endfacet
  facet normal -7.853169e-001 6.190939e-001 2.130383e-016
    outer loop
      vertex   3.032284e+000 -4.546136e-001 1.000000e+000
      vertex   3.066312e+000 -4.114497e-001 0.000000e+000
      vertex   3.032284e+000 -4.546136e-001 0.000000e+000
    endloop
  endfacet
  facet normal -7.343225e-001 6.788007e-001 0.000000e+000
    outer loop
      vertex   2.994975e+000 -4.949747e-001 1.000000e+000
      vertex   3.032284e+000 -4.546136e-001 0.000000e+000
      vertex   2.994975e+000 -4.949747e-001 0.000000e+000
    endloop
  endfacet
  facet normal -6.788007e-001 7.343225e-001 1.617513e-016
    outer loop
      vertex   2.954614e+000 -5.322842e-001 1.000000e+000
      vertex   2.994975e+000 -4.949747e-001 0.000000e+000
      vertex   2.954614e+000 -5.322842e-001 0.000000e+000
    endloop
  endfacet
  facet normal -6.190939e-001 7.853169e-001 0.000000e+000
    outer loop
      vertex   2.911450e+000 -5.663119e-001 1.000000e+000
      vertex   2.954614e+000 -5.322842e-001 0.000000e+000
      vertex   2.911450e+000 -5.663119e-001 0.000000e+000
    endloop
  endfacet
  facet normal -5.555702e-001 8.314696e-001 -1.854222e-016
    outer loop
      vertex   2.865749e+000 -5.968481e-001 1.000000e+000
      vertex   2.911450e+000 -5.663119e-001 0.000000e+000
      vertex   2.865749e+000 -5.968481e-001 0.000000e+000
    endloop
  endfacet
  facet normal -4.886212e-001 8.724960e-001 0.000000e+000
    outer loop
      vertex   2.817793e+000 -6.237046e-001 1.000000e+000
      vertex   2.865749e+000 -5.968481e-001 0.000000e+000
      vertex   2.817793e+000 -6.237046e-001 0.000000e+000
    endloop
  endfacet
  facet normal -4.186597e-001 9.081432e-001 -8.679339e-017
    outer loop
      vertex   2.767878e+000 -6.467157e-001 1.000000e+000
      vertex   2.817793e+000 -6.237046e-001 0.000000e+000
      vertex   2.767878e+000 -6.467157e-001 0.000000e+000
    endloop
  endfacet
  facet normal -3.461171e-001 9.381913e-001 0.000000e+000
    outer loop
      vertex   2.716312e+000 -6.657396e-001 1.000000e+000
      vertex   2.767878e+000 -6.467157e-001 0.000000e+000
      vertex   2.716312e+000 -6.657396e-001 0.000000e+000
    endloop
  endfacet
  facet normal -2.714404e-001 9.624552e-001 1.222998e-016
    outer loop
      vertex   2.663412e+000 -6.806589e-001 1.000000e+000
      vertex   2.716312e+000 -6.657396e-001 0.000000e+000
      vertex   2.663412e+000 -6.806589e-001 0.000000e+000
    endloop
  endfacet
  facet normal -1.950903e-001 9.807853e-001 0.000000e+000
    outer loop
      vertex   2.609504e+000 -6.913818e-001 1.000000e+000
      vertex   2.663412e+000 -6.806589e-001 0.000000e+000
      vertex   2.609504e+000 -6.913818e-001 0.000000e+000
    endloop
  endfacet
  facet normal -1.175374e-001 9.930685e-001 -5.227329e-017
    outer loop
      vertex   2.554921e+000 -6.978421e-001 1.000000e+000
      vertex   2.609504e+000 -6.913818e-001 0.000000e+000
      vertex   2.554921e+000 -6.978421e-001 0.000000e+000
    endloop
  endfacet
  facet normal -3.925982e-002 9.992290e-001 0.000000e+000
    outer loop
      vertex   2.500000e+000 -7.000000e-001 1.000000e+000
      vertex   2.554921e+000 -6.978421e-001 0.000000e+000
      vertex   2.500000e+000 -7.000000e-001 0.000000e+000
    endloop
  endfacet
  facet normal 3.925982e-002 9.992290e-001 -1.750662e-017
    outer loop
      vertex   2.445079e+000 -6.978421e-001 1.000000e+000
      vertex   2.500000e+000 -7.000000e-001 0.000000e+000
      vertex   2.445079e+000 -6.978421e-001 0.000000e+000
    endloop
  endfacet
  facet normal 1.175374e-001 9.930685e-001 0.000000e+000
    outer loop
      vertex   2.390496e+000 -6.913818e-001 1.000000e+000
      vertex   2.445079e+000 -6.978421e-001 0.000000e+000
      vertex   2.390496e+000 -6.913818e-001 0.000000e+000
    endloop
  endfacet
  facet normal 1.950903e-001 9.807853e-001 8.679339e-017
    outer loop
      vertex   2.336588e+000 -6.806589e-001 1.000000e+000
      vertex   2.390496e+000 -6.913818e-001 0.000000e+000
      vertex   2.336588e+000 -6.806589e-001 0.000000e+000
    endloop
  endfacet
  facet normal 2.714404e-001 9.624552e-001 0.000000e+000
    outer loop
      vertex   2.283688e+000 -6.657396e-001 1.000000e+000
      vertex   2.336588e+000 -6.806589e-001 0.000000e+000
      vertex   2.283688e+000 -6.657396e-001 0.000000e+000
    endloop
  endfacet
  facet normal 3.461171e-001 9.381913e-001 -5.128700e-017
    outer loop
      vertex   2.232122e+000 -6.467157e-001 1.000000e+000
      vertex   2.283688e+000 -6.657396e-001 0.000000e+000
      vertex   2.232122e+000 -6.467157e-001 0.000000e+000
    endloop
  endfacet
  facet normal 4.186597e-001 9.081432e-001 0.000000e+000
    outer loop
      vertex   2.182207e+000 -6.237046e-001 1.000000e+000
      vertex   2.232122e+000 -6.467157e-001 0.000000e+000
      vertex   2.182207e+000 -6.237046e-001 0.000000e+000
    endloop
  endfacet
  facet normal 4.886212e-001 8.724960e-001 -9.468370e-017
    outer loop
      vertex   2.134251e+000 -5.968481e-001 1.000000e+000
      vertex   2.182207e+000 -6.237046e-001 0.000000e+000
      vertex   2.134251e+000 -5.968481e-001 0.000000e+000
    endloop
  endfacet
  facet normal 5.555702e-001 8.314696e-001 0.000000e+000
    outer loop
      vertex   2.088550e+000 -5.663119e-001 1.000000e+000
      vertex   2.134251e+000 -5.968481e-001 0.000000e+000
      vertex   2.088550e+000 -5.663119e-001 0.000000e+000
    endloop
  endfacet
  facet normal 6.190939e-001 7.853169e-001 -1.183546e-017
    outer loop
      vertex   2.045386e+000 -5.322842e-001 1.000000e+000
      vertex   2.088550e+000 -5.663119e-001 0.000000e+000
      vertex   2.045386e+000 -5.322842e-001 0.000000e+000
    endloop
  endfacet
  facet normal 6.788007e-001 7.343225e-001 0.000000e+000
    outer loop
      vertex   2.005025e+000 -4.949747e-001 1.000000e+000
      vertex   2.045386e+000 -5.322842e-001 0.000000e+000
      vertex   2.005025e+000 -4.949747e-001 0.000000e+000
    endloop
  endfacet
  facet normal 7.343225e-001 6.788007e-001 0.000000e+000
    outer loop
      vertex   1.967716e+000 -4.546136e-001 1.000000e+000
      vertex   2.005025e+000 -4.949747e-001 0.000000e+000
      vertex   1.967716e+000 -4.546136e-001 0.000000e+000
    endloop
  endfacet
  facet normal 7.853169e-001 6.190939e-001 0.000000e+000
    outer loop
      vertex   1.933688e+000 -4.114497e-001 1.000000e+000
      vertex   1.967716e+000 -4.546136e-001 0.000000e+000
      vertex   1.933688e+000 -4.114497e-001 0.000000e+000
    endloop
  endfacet
  facet normal 8.314696e-001 5.555702e-001 0.000000e+000
    outer loop
      vertex   1.903152e+000 -3.657490e-001 1.000000e+000
      vertex   1.933688e+000 -4.114497e-001 0.000000e+000
      vertex   1.903152e+000 -3.657490e-001 0.000000e+000
    endloop
  endfacet
  facet normal 8.724960e-001 4.886212e-001 0.000000e+000
    outer loop
      vertex   1.876295e+000 -3.177933e-001 1.000000e+000
      vertex   1.903152e+000 -3.657490e-001 0.000000e+000
      vertex   1.876295e+000 -3.177933e-001 0.000000e+000
    endloop
  endfacet
  facet normal 9.081432e-001 4.186597e-001 0.000000e+000
    outer loop
      vertex   1.853284e+000 -2.678784e-001 1.000000e+000
      vertex   1.876295e+000 -3.177933e-001 0.000000e+000
      vertex   1.853284e+000 -2.678784e-001 0.000000e+000
    endloop
  endfacet
  facet normal 9.381913e-001 3.461171e-001 0.000000e+000
    outer loop
      vertex   1.834260e+000 -2.163119e-001 1.000000e+000
      vertex   1.853284e+000 -2.678784e-001 0.000000e+000
      vertex   1.834260e+000 -2.163119e-001 0.000000e+000
    endloop
  endfacet
  facet normal 9.624552e-001 2.714404e-001 0.000000e+000
    outer loop
      vertex   1.819341e+000 -1.634118e-001 1.000000e+000
      vertex   1.834260e+000 -2.163119e-001 0.000000e+000
      vertex   1.819341e+000 -1.634118e-001 0.000000e+000
    endloop
  endfacet
  facet normal 9.807853e-001 1.950903e-001 0.000000e+000
    outer loop
      vertex   1.808618e+000 -1.095041e-001 1.000000e+000
      vertex   1.819341e+000 -1.634118e-001 0.000000e+000
      vertex   1.808618e+000 -1.095041e-001 0.000000e+000
    endloop
  endfacet
  facet normal 9.930685e-001 1.175374e-001 0.000000e+000
    outer loop
      vertex   1.802158e+000 -5.492137e-002 1.000000e+000
      vertex   1.808618e+000 -1.095041e-001 0.000000e+000
      vertex   1.802158e+000 -5.492137e-002 0.000000e+000
    endloop
  endfacet
  facet normal 9.992290e-001 3.925982e-002 0.000000e+000
    outer loop
      vertex   1.800000e+000 0.000000e+000 1.000000e+000
      vertex   1.802158e+000 -5.492137e-002 0.000000e+000
      vertex   1.800000e+000 0.000000e+000 0.000000e+000
    endloop
  endfacet
  facet normal 9.992290e-001 -3.925982e-002 0.000000e+000
    outer loop
      vertex   1.802158e+000 5.492137e-002 1.000000e+000
      vertex   1.800000e+000 0.000000e+000 0.000000e+000
      vertex   1.802158e+000 5.492137e-002 0.000000e+000
    endloop
  endfacet
  facet normal 9.930685e-001 -1.175374e-001 0.000000e+000
    outer loop
      vertex   1.808618e+000 1.095041e-001 1.000000e+000
      vertex   1.802158e+000 5.492137e-002 0.000000e+000
      vertex   1.808618e+000 1.095041e-001 0.000000e+000
    endloop
  endfacet
  facet normal 9.807853e-001 -1.950903e-001 0.000000e+000
    outer loop
      vertex   1.819341e+000 1.634118e-001 1.000000e+000
      vertex   1.808618e+000 1.095041e-001 0.000000e+000
      vertex   1.819341e+000 1.634118e-001 0.000000e+000
    endloop
  endfacet
  facet normal 9.624552e-001 -2.714404e-001 0.000000e+000
    outer loop
      vertex   1.834260e+000 2.163119e-001 1.000000e+000
      vertex   1.819341e+000 1.634118e-001 0.000000e+000
      vertex   1.834260e+000 2.163119e-001 0.000000e+000
    endloop
  endfacet
  facet normal 9.381913e-001 -3.461171e-001 0.000000e+000
    outer loop
      vertex   1.853284e+000 2.678784e-001 1.000000e+000
      vertex   1.834260e+000 2.163119e-001 0.000000e+000
      vertex   1.853284e+000 2.678784e-001 0.000000e+000
    endloop
  endfacet
  facet normal 9.081432e-001 -4.186597e-001 0.000000e+000
    outer loop
      vertex   1.876295e+000 3.177933e-001 1.000000e+000
      vertex   1.853284e+000 2.678784e-001 0.000000e+000
      vertex   1.876295e+000 3.177933e-001 0.000000e+000
    endloop
  endfacet
  facet normal 8.724960e-001 -4.886212e-001 0.000000e+000
    outer loop
      vertex   1.903152e+000 3.657490e-001 1.000000e+000
      vertex   1.876295e+000 3.177933e-001 0.000000e+000
      vertex   1.903152e+000 3.657490e-001 0.000000e+000
    endloop
  endfacet
  facet normal 8.314696e-001 -5.555702e-001 0.000000e+000
    outer loop
      vertex   1.933688e+000 4.114497e-001 1.000000e+000
      vertex   1.903152e+000 3.657490e-001 0.000000e+000
      vertex   1.933688e+000 4.114497e-001 0.000000e+000
    endloop
  endfacet
  facet normal 7.853169e-001 -6.190939e-001 0.000000e+000
    outer loop
      vertex   1.967716e+000 4.546136e-001 1.000000e+000
      vertex   1.933688e+000 4.114497e-001 0.000000e+000
      vertex   1.967716e+000 4.546136e-001 0.000000e+000
    endloop
  endfacet
  facet normal 7.343225e-001 -6.788007e-001 0.000000e+000
    outer loop
      vertex   2.005025e+000 4.949747e-001 1.000000e+000
      vertex   1.967716e+000 4.546136e-001 0.000000e+000
      vertex   2.005025e+000 4.949747e-001 0.000000e+000
    endloop
  endfacet
  facet normal 6.788007e-001 -7.343225e-001 5.523216e-017
    outer loop
      vertex   2.045386e+000 5.322842e-001 1.000000e+000
      vertex   2.005025e+000 4.949747e-001 0.000000e+000
      vertex   2.045386e+000 5.322842e-001 0.000000e+000
    endloop
  endfacet
  facet normal 6.190939e-001 -7.853169e-001 0.000000e+000
    outer loop
      vertex   2.088550e+000 5.663119e-001 1.000000e+000
      vertex   2.045386e+000 5.322842e-001 0.000000e+000
      vertex   2.088550e+000 5.663119e-001 0.000000e+000
    endloop
  endfacet
  facet normal 5.555702e-001 -8.314696e-001 9.468370e-017
    outer loop
      vertex   2.134251e+000 5.968481e-001 1.000000e+000
      vertex   2.088550e+000 5.663119e-001 0.000000e+000
      vertex   2.134251e+000 5.968481e-001 0.000000e+000
    endloop
  endfacet
  facet normal 4.886212e-001 -8.724960e-001 0.000000e+000
    outer loop
      vertex   2.182207e+000 6.237046e-001 1.000000e+000
      vertex   2.134251e+000 5.968481e-001 0.000000e+000
      vertex   2.182207e+000 6.237046e-001 0.000000e+000
    endloop
  endfacet
  facet normal 4.186597e-001 -9.081432e-001 8.284824e-017
    outer loop
      vertex   2.232122e+000 6.467157e-001 1.000000e+000
      vertex   2.182207e+000 6.237046e-001 0.000000e+000
      vertex   2.232122e+000 6.467157e-001 0.000000e+000
    endloop
  endfacet
  facet normal 3.461171e-001 -9.381913e-001 0.000000e+000
    outer loop
      vertex   2.283688e+000 6.657396e-001 1.000000e+000
      vertex   2.232122e+000 6.467157e-001 0.000000e+000
      vertex   2.283688e+000 6.657396e-001 0.000000e+000
    endloop
  endfacet
  facet normal 2.714404e-001 -9.624552e-001 -1.203272e-016
    outer loop
      vertex   2.336588e+000 6.806589e-001 1.000000e+000
      vertex   2.283688e+000 6.657396e-001 0.000000e+000
      vertex   2.336588e+000 6.806589e-001 0.000000e+000
    endloop
  endfacet
  facet normal 1.950903e-001 -9.807853e-001 0.000000e+000
    outer loop
      vertex   2.390496e+000 6.913818e-001 1.000000e+000
      vertex   2.336588e+000 6.806589e-001 0.000000e+000
      vertex   2.390496e+000 6.913818e-001 0.000000e+000
    endloop
  endfacet
  facet normal 1.175374e-001 -9.930685e-001 5.227329e-017
    outer loop
      vertex   2.445079e+000 6.978421e-001 1.000000e+000
      vertex   2.390496e+000 6.913818e-001 0.000000e+000
      vertex   2.445079e+000 6.978421e-001 0.000000e+000
    endloop
  endfacet
  facet normal 3.925982e-002 -9.992290e-001 0.000000e+000
    outer loop
      vertex   2.500000e+000 7.000000e-001 1.000000e+000
      vertex   2.445079e+000 6.978421e-001 0.000000e+000
      vertex   2.500000e+000 7.000000e-001 0.000000e+000
    endloop
  endfacet
  facet normal -3.925982e-002 -9.992290e-001 1.750662e-017
    outer loop
      vertex   2.554921e+000 6.978421e-001 1.000000e+000
      vertex   2.500000e+000 7.000000e-001 0.000000e+000
      vertex   2.554921e+000 6.978421e-001 0.000000e+000
    endloop
  endfacet
  facet normal -1.175374e-001 -9.930685e-001 0.000000e+000
    outer loop
      vertex   2.609504e+000 6.913818e-001 1.000000e+000
      vertex   2.554921e+000 6.978421e-001 0.000000e+000
      vertex   2.609504e+000 6.913818e-001 0.000000e+000
    endloop
  endfacet
  facet normal -1.950903e-001 -9.807853e-001 -8.679339e-017
    outer loop
      vertex   2.663412e+000 6.806589e-001 1.000000e+000
      vertex   2.609504e+000 6.913818e-001 0.000000e+000
      vertex   2.663412e+000 6.806589e-001 0.000000e+000
    endloop
  endfacet
  facet normal -2.714404e-001 -9.624552e-001 0.000000e+000
    outer loop
      vertex   2.716312e+000 6.657396e-001 1.000000e+000
      vertex   2.663412e+000 6.806589e-001 0.000000e+000
      vertex   2.716312e+000 6.657396e-001 0.000000e+000
    endloop
  endfacet
  facet normal -3.461171e-001 -9.381913e-001 5.128700e-017
    outer loop
      vertex   2.767878e+000 6.467157e-001 1.000000e+000
      vertex   2.716312e+000 6.657396e-001 0.000000e+000
      vertex   2.767878e+000 6.467157e-001 0.000000e+000
    endloop
  endfacet
  facet normal -4.186597e-001 -9.081432e-001 0.000000e+000
    outer loop
      vertex   2.817793e+000 6.237046e-001 1.000000e+000
      vertex   2.767878e+000 6.467157e-001 0.000000e+000
      vertex   2.817793e+000 6.237046e-001 0.000000e+000
    endloop
  endfacet
  facet normal -4.886212e-001 -8.724960e-001 1.933126e-016
    outer loop
      vertex   2.865749e+000 5.968481e-001 1.000000e+000
      vertex   2.817793e+000 6.237046e-001 0.000000e+000
      vertex   2.865749e+000 5.968481e-001 0.000000e+000
    endloop
  endfacet
  facet normal -5.555702e-001 -8.314696e-001 0.000000e+000
    outer loop
      vertex   2.911450e+000 5.663119e-001 1.000000e+000
      vertex   2.865749e+000 5.968481e-001 0.000000e+000
      vertex   2.911450e+000 5.663119e-001 0.000000e+000
    endloop
  endfacet
  facet normal -6.190939e-001 -7.853169e-001 -1.735868e-016
    outer loop
      vertex   2.954614e+000 5.322842e-001 1.000000e+000
      vertex   2.911450e+000 5.663119e-001 0.000000e+000
      vertex   2.954614e+000 5.322842e-001 0.000000e+000
    endloop
  endfacet
  facet normal -6.788007e-001 -7.343225e-001 0.000000e+000
    outer loop
      vertex   2.994975e+000 4.949747e-001 1.000000e+000
      vertex   2.954614e+000 5.322842e-001 0.000000e+000
      vertex   2.994975e+000 4.949747e-001 0.000000e+000
    endloop
  endfacet
  facet normal -7.343225e-001 -6.788007e-001 -1.775319e-016
    outer loop
      vertex   3.032284e+000 4.546136e-001 1.000000e+000
      vertex   2.994975e+000 4.949747e-001 0.000000e+000
      vertex   3.032284e+000 4.546136e-001 0.000000e+000
    endloop
  endfacet
  facet normal -7.853169e-001 -6.190939e-001 0.000000e+000
    outer loop
      vertex   3.066312e+000 4.114497e-001 1.000000e+000
      vertex   3.032284e+000 4.546136e-001 0.000000e+000
      vertex   3.066312e+000 4.114497e-001 0.000000e+000
    endloop
  endfacet
  facet normal -8.314696e-001 -5.555702e-001 -1.262449e-016
    outer loop
      vertex   3.096848e+000 3.657490e-001 1.000000e+000
      vertex   3.066312e+000 4.114497e-001 0.000000e+000
      vertex   3.096848e+000 3.657490e-001 0.000000e+000
    endloop
  endfacet
  facet normal -8.724960e-001 -4.886212e-001 0.000000e+000
    outer loop
      vertex   3.123705e+000 3.177933e-001 1.000000e+000
      vertex   3.096848e+000 3.657490e-001 0.000000e+000
      vertex   3.123705e+000 3.177933e-001 0.000000e+000
    endloop
  endfacet
  facet normal -9.081432e-001 -4.186597e-001 -2.840511e-016
    outer loop
      vertex   3.146716e+000 2.678784e-001 1.000000e+000
      vertex   3.123705e+000 3.177933e-001 0.000000e+000
      vertex   3.146716e+000 2.678784e-001 0.000000e+000
    endloop
  endfacet
  facet normal -9.381913e-001 -3.461171e-001 0.000000e+000
    outer loop
      vertex   3.165740e+000 2.163119e-001 1.000000e+000
      vertex   3.146716e+000 2.678784e-001 0.000000e+000
      vertex   3.165740e+000 2.163119e-001 0.000000e+000
    endloop
  endfacet
  facet normal -9.624552e-001 -2.714404e-001 -8.284824e-017
    outer loop
      vertex   3.180659e+000 1.634118e-001 1.000000e+000
      vertex   3.165740e+000 2.163119e-001 0.000000e+000
      vertex   3.180659e+000 1.634118e-001 0.000000e+000
    endloop
  endfacet
  facet normal -9.807853e-001 -1.950903e-001 0.000000e+000
    outer loop
      vertex   3.191382e+000 1.095041e-001 1.000000e+000
      vertex   3.180659e+000 1.634118e-001 0.000000e+000
      vertex   3.191382e+000 1.095041e-001 0.000000e+000
    endloop
  endfacet
  facet normal -9.930685e-001 -1.175374e-001 3.649268e-017
    outer loop
      vertex   3.197842e+000 5.492137e-002 1.000000e+000
      vertex   3.191382e+000 1.095041e-001 0.000000e+000
      vertex   3.197842e+000 5.492137e-002 0.000000e+000
    endloop
  endfacet
  facet normal -9.992290e-001 -3.925982e-002 0.000000e+000
    outer loop
      vertex   3.200000e+000 8.572528e-017 1.000000e+000
      vertex   3.197842e+000 5.492137e-002 0.000000e+000
      vertex   3.200000e+000 8.572528e-017 0.000000e+000
    endloop
  endfacet
  facet normal -9.992290e-001 3.925982e-002 0.000000e+000
    outer loop
      vertex   3.197842e+000 -5.492137e-002 1.000000e+000
      vertex   3.200000e+000 8.572528e-017 1.000000e+000
      vertex   3.200000e+000 8.572528e-017 0.000000e+000
    endloop
  endfacet
  facet normal -9.624552e-001 2.714404e-001 8.287385e-017
    outer loop
      vertex   3.180659e+000 -1.634118e-001 1.000000e+000
      vertex   3.180659e+000 -1.634118e-001 0.000000e+000
      vertex   3.165740e+000 -2.163119e-001 1.000000e+000
    endloop
  endfacet
  facet normal -9.381913e-001 3.461171e-001 0.000000e+000
    outer loop
      vertex   3.165740e+000 -2.163119e-001 1.000000e+000
      vertex   3.165740e+000 -2.163119e-001 0.000000e+000
      vertex   3.146716e+000 -2.678784e-001 1.000000e+000
    endloop
  endfacet
  facet normal -9.081432e-001 4.186597e-001 2.870952e-016
    outer loop
      vertex   3.146716e+000 -2.678784e-001 1.000000e+000
      vertex   3.146716e+000 -2.678784e-001 0.000000e+000
      vertex   3.123705e+000 -3.177933e-001 1.000000e+000
    endloop
  endfacet
  facet normal -8.724960e-001 4.886212e-001 0.000000e+000
    outer loop
      vertex   3.123705e+000 -3.177933e-001 1.000000e+000
      vertex   3.123705e+000 -3.177933e-001 0.000000e+000
      vertex   3.096848e+000 -3.657490e-001 1.000000e+000
    endloop
  endfacet
  facet normal -8.314696e-001 5.555702e-001 1.233614e-016
    outer loop
      vertex   3.096848e+000 -3.657490e-001 1.000000e+000
      vertex   3.096848e+000 -3.657490e-001 0.000000e+000
      vertex   3.066312e+000 -4.114497e-001 1.000000e+000
    endloop
  endfacet
  facet normal -7.853169e-001 6.190939e-001 0.000000e+000
    outer loop
      vertex   3.066312e+000 -4.114497e-001 1.000000e+000
      vertex   3.066312e+000 -4.114497e-001 0.000000e+000
      vertex   3.032284e+000 -4.546136e-001 1.000000e+000
    endloop
  endfacet
  facet normal -7.343225e-001 6.788007e-001 1.753807e-016
    outer loop
      vertex   3.032284e+000 -4.546136e-001 1.000000e+000
      vertex   3.032284e+000 -4.546136e-001 0.000000e+000
      vertex   2.994975e+000 -4.949747e-001 1.000000e+000
    endloop
  endfacet
  facet normal -6.788007e-001 7.343225e-001 0.000000e+000
    outer loop
      vertex   2.994975e+000 -4.949747e-001 1.000000e+000
      vertex   2.994975e+000 -4.949747e-001 0.000000e+000
      vertex   2.954614e+000 -5.322842e-001 1.000000e+000
    endloop
  endfacet
  facet normal -6.190939e-001 7.853169e-001 1.743754e-016
    outer loop
      vertex   2.954614e+000 -5.322842e-001 1.000000e+000
      vertex   2.954614e+000 -5.322842e-001 0.000000e+000
      vertex   2.911450e+000 -5.663119e-001 1.000000e+000
    endloop
  endfacet
  facet normal -5.555702e-001 8.314696e-001 0.000000e+000
    outer loop
      vertex   2.911450e+000 -5.663119e-001 1.000000e+000
      vertex   2.911450e+000 -5.663119e-001 0.000000e+000
      vertex   2.865749e+000 -5.968481e-001 1.000000e+000
    endloop
  endfacet
  facet normal -4.886212e-001 8.724960e-001 -1.937330e-016
    outer loop
      vertex   2.865749e+000 -5.968481e-001 1.000000e+000
      vertex   2.865749e+000 -5.968481e-001 0.000000e+000
      vertex   2.817793e+000 -6.237046e-001 1.000000e+000
    endloop
  endfacet
  facet normal -4.186597e-001 9.081432e-001 0.000000e+000
    outer loop
      vertex   2.817793e+000 -6.237046e-001 1.000000e+000
      vertex   2.817793e+000 -6.237046e-001 0.000000e+000
      vertex   2.767878e+000 -6.467157e-001 1.000000e+000
    endloop
  endfacet
  facet normal -3.461171e-001 9.381913e-001 -4.954669e-017
    outer loop
      vertex   2.767878e+000 -6.467157e-001 1.000000e+000
      vertex   2.767878e+000 -6.467157e-001 0.000000e+000
      vertex   2.716312e+000 -6.657396e-001 1.000000e+000
    endloop
  endfacet
  facet normal -2.714404e-001 9.624552e-001 0.000000e+000
    outer loop
      vertex   2.716312e+000 -6.657396e-001 1.000000e+000
      vertex   2.716312e+000 -6.657396e-001 0.000000e+000
      vertex   2.663412e+000 -6.806589e-001 1.000000e+000
    endloop
  endfacet
  facet normal -1.950903e-001 9.807853e-001 8.663751e-017
    outer loop
      vertex   2.663412e+000 -6.806589e-001 1.000000e+000
      vertex   2.663412e+000 -6.806589e-001 0.000000e+000
      vertex   2.609504e+000 -6.913818e-001 1.000000e+000
    endloop
  endfacet
  facet normal -1.175374e-001 9.930685e-001 0.000000e+000
    outer loop
      vertex   2.609504e+000 -6.913818e-001 1.000000e+000
      vertex   2.609504e+000 -6.913818e-001 0.000000e+000
      vertex   2.554921e+000 -6.978421e-001 1.000000e+000
    endloop
  endfacet
  facet normal -3.925982e-002 9.992290e-001 -1.743486e-017
    outer loop
      vertex   2.554921e+000 -6.978421e-001 1.000000e+000
      vertex   2.554921e+000 -6.978421e-001 0.000000e+000
      vertex   2.500000e+000 -7.000000e-001 1.000000e+000
    endloop
  endfacet
  facet normal 3.925982e-002 9.992290e-001 0.000000e+000
    outer loop
      vertex   2.500000e+000 -7.000000e-001 1.000000e+000
      vertex   2.500000e+000 -7.000000e-001 0.000000e+000
      vertex   2.445079e+000 -6.978421e-001 1.000000e+000
    endloop
  endfacet
  facet normal 1.175374e-001 9.930685e-001 -5.219709e-017
    outer loop
      vertex   2.445079e+000 -6.978421e-001 1.000000e+000
      vertex   2.445079e+000 -6.978421e-001 0.000000e+000
      vertex   2.390496e+000 -6.913818e-001 1.000000e+000
    endloop
  endfacet
  facet normal 1.950903e-001 9.807853e-001 0.000000e+000
    outer loop
      vertex   2.390496e+000 -6.913818e-001 1.000000e+000
      vertex   2.390496e+000 -6.913818e-001 0.000000e+000
      vertex   2.336588e+000 -6.806589e-001 1.000000e+000
    endloop
  endfacet
  facet normal 2.714404e-001 9.624552e-001 1.205438e-016
    outer loop
      vertex   2.336588e+000 -6.806589e-001 1.000000e+000
      vertex   2.336588e+000 -6.806589e-001 0.000000e+000
      vertex   2.283688e+000 -6.657396e-001 1.000000e+000
    endloop
  endfacet
  facet normal 3.461171e-001 9.381913e-001 0.000000e+000
    outer loop
      vertex   2.283688e+000 -6.657396e-001 1.000000e+000
      vertex   2.283688e+000 -6.657396e-001 0.000000e+000
      vertex   2.232122e+000 -6.467157e-001 1.000000e+000
    endloop
  endfacet
  facet normal 4.186597e-001 9.081432e-001 -8.509813e-017
    outer loop
      vertex   2.232122e+000 -6.467157e-001 1.000000e+000
      vertex   2.232122e+000 -6.467157e-001 0.000000e+000
      vertex   2.182207e+000 -6.237046e-001 1.000000e+000
    endloop
  endfacet
  facet normal 4.886212e-001 8.724960e-001 0.000000e+000
    outer loop
      vertex   2.182207e+000 -6.237046e-001 1.000000e+000
      vertex   2.182207e+000 -6.237046e-001 0.000000e+000
      vertex   2.134251e+000 -5.968481e-001 1.000000e+000
    endloop
  endfacet
  facet normal 5.555702e-001 8.314696e-001 -9.231167e-017
    outer loop
      vertex   2.134251e+000 -5.968481e-001 1.000000e+000
      vertex   2.134251e+000 -5.968481e-001 0.000000e+000
      vertex   2.088550e+000 -5.663119e-001 1.000000e+000
    endloop
  endfacet
  facet normal 6.190939e-001 7.853169e-001 0.000000e+000
    outer loop
      vertex   2.088550e+000 -5.663119e-001 1.000000e+000
      vertex   2.088550e+000 -5.663119e-001 0.000000e+000
      vertex   2.045386e+000 -5.322842e-001 1.000000e+000
    endloop
  endfacet
  facet normal 6.788007e-001 7.343225e-001 -5.686956e-017
    outer loop
      vertex   2.045386e+000 -5.322842e-001 1.000000e+000
      vertex   2.045386e+000 -5.322842e-001 0.000000e+000
      vertex   2.005025e+000 -4.949747e-001 1.000000e+000
    endloop
  endfacet
  facet normal 7.343225e-001 6.788007e-001 0.000000e+000
    outer loop
      vertex   2.005025e+000 -4.949747e-001 1.000000e+000
      vertex   2.005025e+000 -4.949747e-001 0.000000e+000
      vertex   1.967716e+000 -4.546136e-001 1.000000e+000
    endloop
  endfacet
  facet normal 7.853169e-001 6.190939e-001 0.000000e+000
    outer loop
      vertex   1.967716e+000 -4.546136e-001 1.000000e+000
      vertex   1.967716e+000 -4.546136e-001 0.000000e+000
      vertex   1.933688e+000 -4.114497e-001 1.000000e+000
    endloop
  endfacet
  facet normal 8.314696e-001 5.555702e-001 0.000000e+000
    outer loop
      vertex   1.933688e+000 -4.114497e-001 1.000000e+000
      vertex   1.933688e+000 -4.114497e-001 0.000000e+000
      vertex   1.903152e+000 -3.657490e-001 1.000000e+000
    endloop
  endfacet
  facet normal 8.724960e-001 4.886212e-001 0.000000e+000
    outer loop
      vertex   1.903152e+000 -3.657490e-001 1.000000e+000
      vertex   1.903152e+000 -3.657490e-001 0.000000e+000
      vertex   1.876295e+000 -3.177933e-001 1.000000e+000
    endloop
  endfacet
  facet normal 9.081432e-001 4.186597e-001 0.000000e+000
    outer loop
      vertex   1.876295e+000 -3.177933e-001 1.000000e+000
      vertex   1.876295e+000 -3.177933e-001 0.000000e+000
      vertex   1.853284e+000 -2.678784e-001 1.000000e+000
    endloop
  endfacet
  facet normal 9.381913e-001 3.461171e-001 0.000000e+000
    outer loop
      vertex   1.853284e+000 -2.678784e-001 1.000000e+000
      vertex   1.853284e+000 -2.678784e-001 0.000000e+000
      vertex   1.834260e+000 -2.163119e-001 1.000000e+000
    endloop
  endfacet
  facet normal 9.624552e-001 2.714404e-001 0.000000e+000
    outer loop
      vertex   1.834260e+000 -2.163119e-001 1.000000e+000
      vertex   1.834260e+000 -2.163119e-001 0.000000e+000
      vertex   1.819341e+000 -1.634118e-001 1.000000e+000
    endloop
  endfacet
  facet normal 9.807853e-001 1.950903e-001 0.000000e+000
    outer loop
      vertex   1.819341e+000 -1.634118e-001 1.000000e+000
      vertex   1.819341e+000 -1.634118e-001 0.000000e+000
      vertex   1.808618e+000 -1.095041e-001 1.000000e+000
    endloop
  endfacet
  facet normal 9.930685e-001 1.175374e-001 0.000000e+000
    outer loop
      vertex   1.808618e+000 -1.095041e-001 1.000000e+000
      vertex   1.808618e+000 -1.095041e-001 0.000000e+000
      vertex   1.802158e+000 -5.492137e-002 1.000000e+000
    endloop
  endfacet
  facet normal 9.992290e-001 3.925982e-002 0.000000e+000
    outer loop
      vertex   1.802158e+000 -5.492137e-002 1.000000e+000
      vertex   1.802158e+000 -5.492137e-002 0.000000e+000
      vertex   1.800000e+000 0.000000e+000 1.000000e+000
    endloop
  endfacet
  facet normal 9.992290e-001 -3.925982e-002 0.000000e+000
    outer loop
      vertex   1.800000e+000 0.000000e+000 1.000000e+000
      vertex   1.800000e+000 0.000000e+000 0.000000e+000
      vertex   1.802158e+000 5.492137e-002 1.000000e+000
    endloop
  endfacet
  facet normal 9.930685e-001 -1.175374e-001 0.000000e+000
    outer loop
      vertex   1.802158e+000 5.492137e-002 1.000000e+000
      vertex   1.802158e+000 5.492137e-002 0.000000e+000
      vertex   1.808618e+000 1.095041e-001 1.000000e+000
    endloop
  endfacet
  facet normal 9.807853e-001 -1.950903e-001 0.000000e+000
    outer loop
      vertex   1.808618e+000 1.095041e-001 1.000000e+000
      vertex   1.808618e+000 1.095041e-001 0.000000e+000
      vertex   1.819341e+000 1.634118e-001 1.000000e+000
    endloop
  endfacet
  facet normal 9.624552e-001 -2.714404e-001 0.000000e+000
    outer loop
      vertex   1.819341e+000 1.634118e-001 1.000000e+000
      vertex   1.819341e+000 1.634118e-001 0.000000e+000
      vertex   1.834260e+000 2.163119e-001 1.000000e+000
    endloop
  endfacet
  facet normal 9.381913e-001 -3.461171e-001 0.000000e+000
    outer loop
      vertex   1.834260e+000 2.163119e-001 1.000000e+000
      vertex   1.834260e+000 2.163119e-001 0.000000e+000
      vertex   1.853284e+000 2.678784e-001 1.000000e+000
    endloop
  endfacet
  facet normal 9.081432e-001 -4.186597e-001 0.000000e+000
    outer loop
      vertex   1.853284e+000 2.678784e-001 1.000000e+000
      vertex   1.853284e+000 2.678784e-001 0.000000e+000
      vertex   1.876295e+000 3.177933e-001 1.000000e+000
    endloop
  endfacet
  facet normal 8.724960e-001 -4.886212e-001 0.000000e+000
    outer loop
      vertex   1.876295e+000 3.177933e-001 1.000000e+000
      vertex   1.876295e+000 3.177933e-001 0.000000e+000
      vertex   1.903152e+000 3.657490e-001 1.000000e+000
    endloop
  endfacet
  facet normal 8.314696e-001 -5.555702e-001 0.000000e+000
    outer loop
      vertex   1.903152e+000 3.657490e-001 1.000000e+000
      vertex   1.903152e+000 3.657490e-001 0.000000e+000
      vertex   1.933688e+000 4.114497e-001 1.000000e+000
    endloop
  endfacet
  facet normal 7.853169e-001 -6.190939e-001 0.000000e+000
    outer loop
      vertex   1.933688e+000 4.114497e-001 1.000000e+000
      vertex   1.933688e+000 4.114497e-001 0.000000e+000
      vertex   1.967716e+000 4.546136e-001 1.000000e+000
    endloop
  endfacet
  facet normal 7.343225e-001 -6.788007e-001 0.000000e+000
    outer loop
      vertex   1.967716e+000 4.546136e-001 1.000000e+000
      vertex   1.967716e+000 4.546136e-001 0.000000e+000
      vertex   2.005025e+000 4.949747e-001 1.000000e+000
    endloop
  endfacet
  facet normal 6.788007e-001 -7.343225e-001 0.000000e+000
    outer loop
      vertex   2.005025e+000 4.949747e-001 1.000000e+000
      vertex   2.005025e+000 4.949747e-001 0.000000e+000
      vertex   2.045386e+000 5.322842e-001 1.000000e+000
    endloop
  endfacet
  facet normal 6.190939e-001 -7.853169e-001 1.336986e-017
    outer loop
      vertex   2.045386e+000 5.322842e-001 1.000000e+000
      vertex   2.045386e+000 5.322842e-001 0.000000e+000
      vertex   2.088550e+000 5.663119e-001 1.000000e+000
    endloop
  endfacet
  facet normal 5.555702e-001 -8.314696e-001 0.000000e+000
    outer loop
      vertex   2.088550e+000 5.663119e-001 1.000000e+000
      vertex   2.088550e+000 5.663119e-001 0.000000e+000
      vertex   2.134251e+000 5.968481e-001 1.000000e+000
    endloop
  endfacet
  facet normal 4.886212e-001 -8.724960e-001 9.686652e-017
    outer loop
      vertex   2.134251e+000 5.968481e-001 1.000000e+000
      vertex   2.134251e+000 5.968481e-001 0.000000e+000
      vertex   2.182207e+000 6.237046e-001 1.000000e+000
    endloop
  endfacet
  facet normal 4.186597e-001 -9.081432e-001 0.000000e+000
    outer loop
      vertex   2.182207e+000 6.237046e-001 1.000000e+000
      vertex   2.182207e+000 6.237046e-001 0.000000e+000
      vertex   2.232122e+000 6.467157e-001 1.000000e+000
    endloop
  endfacet
  facet normal 3.461171e-001 -9.381913e-001 4.954669e-017
    outer loop
      vertex   2.232122e+000 6.467157e-001 1.000000e+000
      vertex   2.232122e+000 6.467157e-001 0.000000e+000
      vertex   2.283688e+000 6.657396e-001 1.000000e+000
    endloop
  endfacet
  facet normal 2.714404e-001 -9.624552e-001 0.000000e+000
    outer loop
      vertex   2.283688e+000 6.657396e-001 1.000000e+000
      vertex   2.283688e+000 6.657396e-001 0.000000e+000
      vertex   2.336588e+000 6.806589e-001 1.000000e+000
    endloop
  endfacet
  facet normal 1.950903e-001 -9.807853e-001 -8.663751e-017
    outer loop
      vertex   2.336588e+000 6.806589e-001 1.000000e+000
      vertex   2.336588e+000 6.806589e-001 0.000000e+000
      vertex   2.390496e+000 6.913818e-001 1.000000e+000
    endloop
  endfacet
  facet normal 1.175374e-001 -9.930685e-001 0.000000e+000
    outer loop
      vertex   2.390496e+000 6.913818e-001 1.000000e+000
      vertex   2.390496e+000 6.913818e-001 0.000000e+000
      vertex   2.445079e+000 6.978421e-001 1.000000e+000
    endloop
  endfacet
  facet normal 3.925982e-002 -9.992290e-001 1.743486e-017
    outer loop
      vertex   2.445079e+000 6.978421e-001 1.000000e+000
      vertex   2.445079e+000 6.978421e-001 0.000000e+000
      vertex   2.500000e+000 7.000000e-001 1.000000e+000
    endloop
  endfacet
  facet normal -3.925982e-002 -9.992290e-001 -0.000000e+000
    outer loop
      vertex   2.500000e+000 7.000000e-001 1.000000e+000
      vertex   2.500000e+000 7.000000e-001 0.000000e+000
      vertex   2.554921e+000 6.978421e-001 1.000000e+000
    endloop
  endfacet
  facet normal -1.175374e-001 -9.930685e-001 5.219709e-017
    outer loop
      vertex   2.554921e+000 6.978421e-001 1.000000e+000
      vertex   2.554921e+000 6.978421e-001 0.000000e+000
      vertex   2.609504e+000 6.913818e-001 1.000000e+000
    endloop
  endfacet
  facet normal -1.950903e-001 -9.807853e-001 -0.000000e+000
    outer loop
      vertex   2.609504e+000 6.913818e-001 1.000000e+000
      vertex   2.609504e+000 6.913818e-001 0.000000e+000
      vertex   2.663412e+000 6.806589e-001 1.000000e+000
    endloop
  endfacet
  facet normal -2.714404e-001 -9.624552e-001 -1.205438e-016
    outer loop
      vertex   2.663412e+000 6.806589e-001 1.000000e+000
      vertex   2.663412e+000 6.806589e-001 0.000000e+000
      vertex   2.716312e+000 6.657396e-001 1.000000e+000
    endloop
  endfacet
  facet normal -3.461171e-001 -9.381913e-001 -0.000000e+000
    outer loop
      vertex   2.716312e+000 6.657396e-001 1.000000e+000
      vertex   2.716312e+000 6.657396e-001 0.000000e+000
      vertex   2.767878e+000 6.467157e-001 1.000000e+000
    endloop
  endfacet
  facet normal -4.186597e-001 -9.081432e-001 8.509813e-017
    outer loop
      vertex   2.767878e+000 6.467157e-001 1.000000e+000
      vertex   2.767878e+000 6.467157e-001 0.000000e+000
      vertex   2.817793e+000 6.237046e-001 1.000000e+000
    endloop
  endfacet
  facet normal -4.886212e-001 -8.724960e-001 -0.000000e+000
    outer loop
      vertex   2.817793e+000 6.237046e-001 1.000000e+000
      vertex   2.817793e+000 6.237046e-001 0.000000e+000
      vertex   2.865749e+000 5.968481e-001 1.000000e+000
    endloop
  endfacet
  facet normal -5.555702e-001 -8.314696e-001 1.846233e-016
    outer loop
      vertex   2.865749e+000 5.968481e-001 1.000000e+000
      vertex   2.865749e+000 5.968481e-001 0.000000e+000
      vertex   2.911450e+000 5.663119e-001 1.000000e+000
    endloop
  endfacet
  facet normal -6.190939e-001 -7.853169e-001 -0.000000e+000
    outer loop
      vertex   2.911450e+000 5.663119e-001 1.000000e+000
      vertex   2.911450e+000 5.663119e-001 0.000000e+000
      vertex   2.954614e+000 5.322842e-001 1.000000e+000
    endloop
  endfacet
  facet normal -6.788007e-001 -7.343225e-001 -1.630524e-016
    outer loop
      vertex   2.954614e+000 5.322842e-001 1.000000e+000
      vertex   2.954614e+000 5.322842e-001 0.000000e+000
      vertex   2.994975e+000 4.949747e-001 1.000000e+000
    endloop
  endfacet
  facet normal -7.343225e-001 -6.788007e-001 -0.000000e+000
    outer loop
      vertex   2.994975e+000 4.949747e-001 1.000000e+000
      vertex   2.994975e+000 4.949747e-001 0.000000e+000
      vertex   3.032284e+000 4.546136e-001 1.000000e+000
    endloop
  endfacet
  facet normal -7.853169e-001 -6.190939e-001 -2.112843e-016
    outer loop
      vertex   3.032284e+000 4.546136e-001 1.000000e+000
      vertex   3.032284e+000 4.546136e-001 0.000000e+000
      vertex   3.066312e+000 4.114497e-001 1.000000e+000
    endloop
  endfacet
  facet normal -8.314696e-001 -5.555702e-001 -0.000000e+000
    outer loop
      vertex   3.066312e+000 4.114497e-001 1.000000e+000
      vertex   3.066312e+000 4.114497e-001 0.000000e+000
      vertex   3.096848e+000 3.657490e-001 1.000000e+000
    endloop
  endfacet
  facet normal -8.724960e-001 -4.886212e-001 -1.084957e-016
    outer loop
      vertex   3.096848e+000 3.657490e-001 1.000000e+000
      vertex   3.096848e+000 3.657490e-001 0.000000e+000
      vertex   3.123705e+000 3.177933e-001 1.000000e+000
    endloop
  endfacet
  facet normal -9.081432e-001 -4.186597e-001 -0.000000e+000
    outer loop
      vertex   3.123705e+000 3.177933e-001 1.000000e+000
      vertex   3.123705e+000 3.177933e-001 0.000000e+000
      vertex   3.146716e+000 2.678784e-001 1.000000e+000
    endloop
  endfacet
  facet normal -9.381913e-001 -3.461171e-001 -3.205739e-016
    outer loop
      vertex   3.146716e+000 2.678784e-001 1.000000e+000
      vertex   3.146716e+000 2.678784e-001 0.000000e+000
      vertex   3.165740e+000 2.163119e-001 1.000000e+000
    endloop
  endfacet
  facet normal -9.624552e-001 -2.714404e-001 -0.000000e+000
    outer loop
      vertex   3.165740e+000 2.163119e-001 1.000000e+000
      vertex   3.165740e+000 2.163119e-001 0.000000e+000
      vertex   3.180659e+000 1.634118e-001 1.000000e+000
    endloop
  endfacet
  facet normal -9.807853e-001 -1.950903e-001 -5.956329e-017
    outer loop
      vertex   3.180659e+000 1.634118e-001 1.000000e+000
      vertex   3.180659e+000 1.634118e-001 0.000000e+000
      vertex   3.191382e+000 1.095041e-001 1.000000e+000
    endloop
  endfacet
  facet normal -9.930685e-001 -1.175374e-001 -0.000000e+000
    outer loop
      vertex   3.191382e+000 1.095041e-001 1.000000e+000
      vertex   3.191382e+000 1.095041e-001 0.000000e+000
      vertex   3.197842e+000 5.492137e-002 1.000000e+000
    endloop
  endfacet
  facet normal -9.992290e-001 -3.925982e-002 1.225889e-017
    outer loop
      vertex   3.197842e+000 5.492137e-002 1.000000e+000
      vertex   3.197842e+000 5.492137e-002 0.000000e+000
      vertex   3.200000e+000 8.572528e-017 1.000000e+000
    endloop
  endfacet
  facet normal -1.776357e-016 1.000000e+000 0.000000e+000
    outer loop
      vertex   5.000000e+000 2.000000e+000 0.000000e+000
      vertex   -5.000000e+000 2.000000e+000 0.000000e+000
      vertex   5.000000e+000 2.000000e+000 1.000000e+000
    endloop
  endfacet
  facet normal -1.776357e-016 1.000000e+000 0.000000e+000
    outer loop
      vertex   5.000000e+000 2.000000e+000 1.000000e+000
      vertex   -5.000000e+000 2.000000e+000 0.000000e+000
      vertex   -5.000000e+000 2.000000e+000 1.000000e+000
    endloop
  endfacet
  facet normal 1.000000e+000 2.220446e-016 8.881784e-016
    outer loop
      vertex   5.000000e+000 -2.000000e+000 0.000000e+000
      vertex   5.000000e+000 2.000000e+000 0.000000e+000
      vertex   5.000000e+000 -2.000000e+000 1.000000e+000
    endloop
  endfacet
  facet normal 1.000000e+000 -0.000000e+000 0.000000e+000
    outer loop
      vertex   5.000000e+000 -2.000000e+000 1.000000e+000
      vertex   5.000000e+000 2.000000e+000 0.000000e+000
      vertex   5.000000e+000 2.000000e+000 1.000000e+000
    endloop
  endfacet
  facet normal 2.886580e-016 -1.000000e+000 0.000000e+000
    outer loop
      vertex   -5.000000e+000 -2.000000e+000 0.000000e+000
      vertex   5.000000e+000 -2.000000e+000 0.000000e+000
      vertex   -5.000000e+000 -2.000000e+000 1.000000e+000
    endloop
  endfacet
  facet normal 2.664535e-016 -1.000000e+000 -2.220446e-016
    outer loop
      vertex   -5.000000e+000 -2.000000e+000 1.000000e+000
      vertex   5.000000e+000 -2.000000e+000 0.000000e+000
      vertex   5.000000e+000 -2.000000e+000 1.000000e+000
    endloop
  endfacet
  facet normal -1.000000e+000 -2.220446e-016 0.000000e+000
    outer loop
      vertex   -5.000000e+000 2.000000e+000 0.000000e+000
      vertex   -5.000000e+000 -2.000000e+000 0.000000e+000
      vertex   -5.000000e+000 2.000000e+000 1.000000e+000
    endloop
  endfacet
  facet normal -1.000000e+000 -2.220446e-016 0.000000e+000
    outer loop
      vertex   -5.000000e+000 2.000000e+000 1.000000e+000
      vertex   -5.000000e+000 -2.000000e+000 0.000000e+000
      vertex   -5.000000e+000 -2.000000e+000 1.000000e+000
    endloop
  endfacet
  facet normal -0.000000e+000 -0.000000e+000 1.000000e+000
    outer loop
      vertex   3.197842e+000 -5.492137e-002 1.000000e+000
      vertex   5.000000e+000 -2.000000e+000 1.000000e+000
      vertex   3.200000e+000 8.572528e-017 1.000000e+000
    endloop
  endfacet
  facet normal 0.000000e+000 0.000000e+000 1.000000e+000
    outer loop
      vertex   3.197842e+000 -5.492137e-002 1.000000e+000
      vertex   3.191382e+000 -1.095041e-001 1.000000e+000
      vertex   5.000000e+000 -2.000000e+000 1.000000e+000
    endloop
  endfacet
  facet normal 0.000000e+000 0.000000e+000 1.000000e+000
    outer loop
      vertex   5.000000e+000 -2.000000e+000 1.000000e+000
      vertex   3.191382e+000 -1.095041e-001 1.000000e+000
      vertex   3.180659e+000 -1.634118e-001 1.000000e+000
    endloop
  endfacet
  facet normal -0.000000e+000 -0.000000e+000 1.000000e+000
    outer loop
      vertex   3.165740e+000 -2.163119e-001 1.000000e+000
      vertex   5.000000e+000 -2.000000e+000 1.000000e+000
      vertex   3.180659e+000 -1.634118e-001 1.000000e+000
    endloop
  endfacet
  facet normal 0.000000e+000 0.000000e+000 1.000000e+000
    outer loop
      vertex   3.165740e+000 -2.163119e-001 1.000000e+000
      vertex   3.146716e+000 -2.678784e-001 1.000000e+000
      vertex   5.000000e+000 -2.000000e+000 1.000000e+000
    endloop
  endfacet
  facet normal 0.000000e+000 0.000000e+000 1.000000e+000
    outer loop
      vertex   5.000000e+000 -2.000000e+000 1.000000e+000
      vertex   3.146716e+000 -2.678784e-001 1.000000e+000
      vertex   3.123705e+000 -3.177933e-001 1.000000e+000
    endloop
  endfacet
  facet normal -0.000000e+000 -0.000000e+000 1.000000e+000
    outer loop
      vertex   3.096848e+000 -3.657490e-001 1.000000e+000
      vertex   5.000000e+000 -2.000000e+000 1.000000e+000
      vertex   3.123705e+000 -3.177933e-001 1.000000e+000
    endloop
  endfacet
  facet normal 0.000000e+000 0.000000e+000 1.000000e+000
    outer loop
      vertex   3.096848e+000 -3.657490e-001 1.000000e+000
      vertex   3.066312e+000 -4.114497e-001 1.000000e+000
      vertex   5.000000e+000 -2.000000e+000 1.000000e+000
    endloop
  endfacet
  facet normal 0.000000e+000 0.000000e+000 1.000000e+000
    outer loop
      vertex   5.000000e+000 -2.000000e+000 1.000000e+000
      vertex   3.066312e+000 -4.114497e-001 1.000000e+000
      vertex   3.032284e+000 -4.546136e-001 1.000000e+000
    endloop
  endfacet
  facet normal -0.000000e+000 -0.000000e+000 1.000000e+000
    outer loop
      vertex   2.994975e+000 -4.949747e-001 1.000000e+000
      vertex   5.000000e+000 -2.000000e+000 1.000000e+000
      vertex   3.032284e+000 -4.546136e-001 1.000000e+000
    endloop
  endfacet
  facet normal 0.000000e+000 0.000000e+000 1.000000e+000
    outer loop
      vertex   2.994975e+000 -4.949747e-001 1.000000e+000
      vertex   2.954614e+000 -5.322842e-001 1.000000e+000
      vertex   5.000000e+000 -2.000000e+000 1.000000e+000
    endloop
  endfacet
  facet normal 0.000000e+000 0.000000e+000 1.000000e+000
    outer loop
      vertex   5.000000e+000 -2.000000e+000 1.000000e+000
      vertex   2.954614e+000 -5.322842e-001 1.000000e+000
      vertex   2.911450e+000 -5.663119e-001 1.000000e+000
    endloop
  endfacet
  facet normal -0.000000e+000 -0.000000e+000 1.000000e+000
    outer loop
      vertex   2.865749e+000 -5.968481e-001 1.000000e+000
      vertex   5.000000e+000 -2.000000e+000 1.000000e+000
      vertex   2.911450e+000 -5.663119e-001 1.000000e+000
    endloop
  endfacet
  facet normal 0.000000e+000 0.000000e+000 1.000000e+000
    outer loop
      vertex   2.865749e+000 -5.968481e-001 1.000000e+000
      vertex   2.817793e+000 -6.237046e-001 1.000000e+000
      vertex   5.000000e+000 -2.000000e+000 1.000000e+000
    endloop
  endfacet
  facet normal 0.000000e+000 0.000000e+000 1.000000e+000
    outer loop
      vertex   5.000000e+000 -2.000000e+000 1.000000e+000
      vertex   2.817793e+000 -6.237046e-001 1.000000e+000
      vertex   2.767878e+000 -6.467157e-001 1.000000e+000
    endloop
  endfacet
  facet normal -0.000000e+000 -0.000000e+000 1.000000e+000
    outer loop
      vertex   2.716312e+000 -6.657396e-001 1.000000e+000
      vertex   5.000000e+000 -2.000000e+000 1.000000e+000
      vertex   2.767878e+000 -6.467157e-001 1.000000e+000
    endloop
  endfacet
  facet normal 0.000000e+000 0.000000e+000 1.000000e+000
    outer loop
      vertex   2.716312e+000 -6.657396e-001 1.000000e+000
      vertex   2.663412e+000 -6.806589e-001 1.000000e+000
      vertex   5.000000e+000 -2.000000e+000 1.000000e+000
    endloop
  endfacet
  facet normal 0.000000e+000 0.000000e+000 1.000000e+000
    outer loop
      vertex   5.000000e+000 -2.000000e+000 1.000000e+000
      vertex   2.663412e+000 -6.806589e-001 1.000000e+000
      vertex   2.609504e+000 -6.913818e-001 1.000000e+000
    endloop
  endfacet
  facet normal -0.000000e+000 -0.000000e+000 1.000000e+000
    outer loop
      vertex   2.554921e+000 -6.978421e-001 1.000000e+000
      vertex   5.000000e+000 -2.000000e+000 1.000000e+000
      vertex   2.609504e+000 -6.913818e-001 1.000000e+000
    endloop
  endfacet
  facet normal 0.000000e+000 0.000000e+000 1.000000e+000
    outer loop
      vertex   2.554921e+000 -6.978421e-001 1.000000e+000
      vertex   2.500000e+000 -7.000000e-001 1.000000e+000
      vertex   5.000000e+000 -2.000000e+000 1.000000e+000
    endloop
  endfacet
  facet normal 0.000000e+000 0.000000e+000 1.000000e+000
    outer loop
      vertex   5.000000e+000 -2.000000e+000 1.000000e+000
      vertex   2.500000e+000 -7.000000e-001 1.000000e+000
      vertex   2.445079e+000 -6.978421e-001 1.000000e+000
    endloop
  endfacet
  facet normal -0.000000e+000 -0.000000e+000 1.000000e+000
    outer loop
      vertex   2.390496e+000 -6.913818e-001 1.000000e+000
      vertex   5.000000e+000 -2.000000e+000 1.000000e+000
      vertex   2.445079e+000 -6.978421e-001 1.000000e+000
    endloop
  endfacet
  facet normal 0.000000e+000 0.000000e+000 1.000000e+000
    outer loop
      vertex   2.390496e+000 -6.913818e-001 1.000000e+000
      vertex   2.336588e+000 -6.806589e-001 1.000000e+000
      vertex   5.000000e+000 -2.000000e+000 1.000000e+000
    endloop
  endfacet
  facet normal 0.000000e+000 0.000000e+000 1.000000e+000
    outer loop
      vertex   5.000000e+000 -2.000000e+000 1.000000e+000
      vertex   2.336588e+000 -6.806589e-001 1.000000e+000
      vertex   -5.000000e+000 -2.000000e+000 1.000000e+000
    endloop
  endfacet
  facet normal 0.000000e+000 -0.000000e+000 1.000000e+000
    outer loop
      vertex   -5.000000e+000 -2.000000e+000 1.000000e+000
      vertex   2.336588e+000 -6.806589e-001 1.000000e+000
      vertex   2.283688e+000 -6.657396e-001 1.000000e+000
    endloop
  endfacet
  facet normal -0.000000e+000 0.000000e+000 1.000000e+000
    outer loop
      vertex   2.232122e+000 -6.467157e-001 1.000000e+000
      vertex   -5.000000e+000 -2.000000e+000 1.000000e+000
      vertex   2.283688e+000 -6.657396e-001 1.000000e+000
    endloop
  endfacet
  facet normal 0.000000e+000 0.000000e+000 1.000000e+000
    outer loop
      vertex   2.232122e+000 -6.467157e-001 1.000000e+000
      vertex   2.182207e+000 -6.237046e-001 1.000000e+000
      vertex   -5.000000e+000 -2.000000e+000 1.000000e+000
    endloop
  endfacet
  facet normal 0.000000e+000 -0.000000e+000 1.000000e+000
    outer loop
      vertex   -5.000000e+000 -2.000000e+000 1.000000e+000
      vertex   2.182207e+000 -6.237046e-001 1.000000e+000
      vertex   2.134251e+000 -5.968481e-001 1.000000e+000
    endloop
  endfacet
  facet normal -0.000000e+000 0.000000e+000 1.000000e+000
    outer loop
      vertex   2.088550e+000 -5.663119e-001 1.000000e+000
      vertex   -5.000000e+000 -2.000000e+000 1.000000e+000
      vertex   2.134251e+000 -5.968481e-001 1.000000e+000
    endloop
  endfacet
  facet normal 0.000000e+000 0.000000e+000 1.000000e+000
    outer loop
      vertex   2.088550e+000 -5.663119e-001 1.000000e+000
      vertex   2.045386e+000 -5.322842e-001 1.000000e+000
      vertex   -5.000000e+000 -2.000000e+000 1.000000e+000
    endloop
  endfacet
  facet normal 0.000000e+000 -0.000000e+000 1.000000e+000
    outer loop
      vertex   -5.000000e+000 -2.000000e+000 1.000000e+000
      vertex   2.045386e+000 -5.322842e-001 1.000000e+000
      vertex   2.005025e+000 -4.949747e-001 1.000000e+000
    endloop
  endfacet
  facet normal -0.000000e+000 0.000000e+000 1.000000e+000
    outer loop
      vertex   1.967716e+000 -4.546136e-001 1.000000e+000
      vertex   -5.000000e+000 -2.000000e+000 1.000000e+000
      vertex   2.005025e+000 -4.949747e-001 1.000000e+000
    endloop
  endfacet
  facet normal 0.000000e+000 0.000000e+000 1.000000e+000
    outer loop
      vertex   1.967716e+000 -4.546136e-001 1.000000e+000
      vertex   1.933688e+000 -4.114497e-001 1.000000e+000
      vertex   -5.000000e+000 -2.000000e+000 1.000000e+000
    endloop
  endfacet
  facet normal 0.000000e+000 -0.000000e+000 1.000000e+000
    outer loop
      vertex   -5.000000e+000 -2.000000e+000 1.000000e+000
      vertex   1.933688e+000 -4.114497e-001 1.000000e+000
      vertex   1.903152e+000 -3.657490e-001 1.000000e+000
    endloop
  endfacet
  facet normal -0.000000e+000 0.000000e+000 1.000000e+000
    outer loop
      vertex   1.876295e+000 -3.177933e-001 1.000000e+000
      vertex   -5.000000e+000 -2.000000e+000 1.000000e+000
      vertex   1.903152e+000 -3.657490e-001 1.000000e+000
    endloop
  endfacet
  facet normal 0.000000e+000 0.000000e+000 1.000000e+000
    outer loop
      vertex   1.876295e+000 -3.177933e-001 1.000000e+000
      vertex   1.853284e+000 -2.678784e-001 1.000000e+000
      vertex   -5.000000e+000 -2.000000e+000 1.000000e+000
    endloop
  endfacet
  facet normal 0.000000e+000 -0.000000e+000 1.000000e+000
    outer loop
      vertex   -5.000000e+000 -2.000000e+000 1.000000e+000
      vertex   1.853284e+000 -2.678784e-001 1.000000e+000
      vertex   1.834260e+000 -2.163119e-001 1.000000e+000
    endloop
  endfacet
  facet normal -0.000000e+000 0.000000e+000 1.000000e+000
    outer loop
      vertex   1.819341e+000 -1.634118e-001 1.000000e+000
      vertex   -5.000000e+000 -2.000000e+000 1.000000e+000
      vertex   1.834260e+000 -2.163119e-001 1.000000e+000
    endloop
  endfacet
  facet normal 0.000000e+000 0.000000e+000 1.000000e+000
    outer loop
      vertex   1.819341e+000 -1.634118e-001 1.000000e+000
      vertex   1.808618e+000 -1.095041e-001 1.000000e+000
      vertex   -5.000000e+000 -2.000000e+000 1.000000e+000
    endloop
  endfacet
  facet normal 0.000000e+000 -0.000000e+000 1.000000e+000
    outer loop
      vertex   -5.000000e+000 -2.000000e+000 1.000000e+000
      vertex   1.808618e+000 -1.095041e-001 1.000000e+000
      vertex   1.802158e+000 -5.492137e-002 1.000000e+000
    endloop
  endfacet
  facet normal -0.000000e+000 0.000000e+000 1.000000e+000
    outer loop
      vertex   1.800000e+000 0.000000e+000 1.000000e+000
      vertex   -5.000000e+000 -2.000000e+000 1.000000e+000
      vertex   1.802158e+000 -5.492137e-002 1.000000e+000
    endloop
  endfacet
  facet normal 0.000000e+000 0.000000e+000 1.000000e+000
    outer loop
      vertex   1.800000e+000 0.000000e+000 1.000000e+000
      vertex   -5.000000e+000 2.000000e+000 1.000000e+000
      vertex   -5.000000e+000 -2.000000e+000 1.000000e+000
    endloop
  endfacet
  facet normal 0.000000e+000 -0.000000e+000 1.000000e+000
    outer loop
      vertex   1.800000e+000 0.000000e+000 1.000000e+000
      vertex   1.802158e+000 5.492137e-002 1.000000e+000
      vertex   -5.000000e+000 2.000000e+000 1.000000e+000
    endloop
  endfacet
  facet normal -0.000000e+000 0.000000e+000 1.000000e+000
    outer loop
      vertex   -5.000000e+000 2.000000e+000 1.000000e+000
      vertex   1.802158e+000 5.492137e-002 1.000000e+000
      vertex   1.808618e+000 1.095041e-001 1.000000e+000
    endloop
  endfacet
  facet normal 0.000000e+000 0.000000e+000 1.000000e+000
    outer loop
      vertex   1.819341e+000 1.634118e-001 1.000000e+000
      vertex   -5.000000e+000 2.000000e+000 1.000000e+000
      vertex   1.808618e+000 1.095041e-001 1.000000e+000
    endloop
  endfacet
  facet normal 0.000000e+000 -0.000000e+000 1.000000e+000
    outer loop
      vertex   1.819341e+000 1.634118e-001 1.000000e+000
      vertex   1.834260e+000 2.163119e-001 1.000000e+000
      vertex   -5.000000e+000 2.000000e+000 1.000000e+000
    endloop
  endfacet
  facet normal -0.000000e+000 0.000000e+000 1.000000e+000
    outer loop
      vertex   -5.000000e+000 2.000000e+000 1.000000e+000
      vertex   1.834260e+000 2.163119e-001 1.000000e+000
      vertex   1.853284e+000 2.678784e-001 1.000000e+000
    endloop
  endfacet
  facet normal 0.000000e+000 0.000000e+000 1.000000e+000
    outer loop
      vertex   1.876295e+000 3.177933e-001 1.000000e+000
      vertex   -5.000000e+000 2.000000e+000 1.000000e+000
      vertex   1.853284e+000 2.678784e-001 1.000000e+000
    endloop
  endfacet
  facet normal 0.000000e+000 -0.000000e+000 1.000000e+000
    outer loop
      vertex   1.876295e+000 3.177933e-001 1.000000e+000
      vertex   1.903152e+000 3.657490e-001 1.000000e+000
      vertex   -5.000000e+000 2.000000e+000 1.000000e+000
    endloop
  endfacet
  facet normal -0.000000e+000 0.000000e+000 1.000000e+000
    outer loop
      vertex   -5.000000e+000 2.000000e+000 1.000000e+000
      vertex   1.903152e+000 3.657490e-001 1.000000e+000
      vertex   1.933688e+000 4.114497e-001 1.000000e+000
    endloop
  endfacet
  facet normal 0.000000e+000 0.000000e+000 1.000000e+000
    outer loop
      vertex   1.967716e+000 4.546136e-001 1.000000e+000
      vertex   -5.000000e+000 2.000000e+000 1.000000e+000
      vertex   1.933688e+000 4.114497e-001 1.000000e+000
    endloop
  endfacet
  facet normal 0.000000e+000 -0.000000e+000 1.000000e+000
    outer loop
      vertex   1.967716e+000 4.546136e-001 1.000000e+000
      vertex   2.005025e+000 4.949747e-001 1.000000e+000
      vertex   -5.000000e+000 2.000000e+000 1.000000e+000
    endloop
  endfacet
  facet normal -0.000000e+000 0.000000e+000 1.000000e+000
    outer loop
      vertex   -5.000000e+000 2.000000e+000 1.000000e+000
      vertex   2.005025e+000 4.949747e-001 1.000000e+000
      vertex   2.045386e+000 5.322842e-001 1.000000e+000
    endloop
  endfacet
  facet normal 0.000000e+000 0.000000e+000 1.000000e+000
    outer loop
      vertex   2.088550e+000 5.663119e-001 1.000000e+000
      vertex   -5.000000e+000 2.000000e+000 1.000000e+000
      vertex   2.045386e+000 5.322842e-001 1.000000e+000
    endloop
  endfacet
  facet normal 0.000000e+000 -0.000000e+000 1.000000e+000
    outer loop
      vertex   2.088550e+000 5.663119e-001 1.000000e+000
      vertex   2.134251e+000 5.968481e-001 1.000000e+000
      vertex   -5.000000e+000 2.000000e+000 1.000000e+000
    endloop
  endfacet
  facet normal -0.000000e+000 0.000000e+000 1.000000e+000
    outer loop
      vertex   -5.000000e+000 2.000000e+000 1.000000e+000
      vertex   2.134251e+000 5.968481e-001 1.000000e+000
      vertex   2.182207e+000 6.237046e-001 1.000000e+000
    endloop
  endfacet
  facet normal 0.000000e+000 0.000000e+000 1.000000e+000
    outer loop
      vertex   2.232122e+000 6.467157e-001 1.000000e+000
      vertex   -5.000000e+000 2.000000e+000 1.000000e+000
      vertex   2.182207e+000 6.237046e-001 1.000000e+000
    endloop
  endfacet
  facet normal 0.000000e+000 -0.000000e+000 1.000000e+000
    outer loop
      vertex   2.232122e+000 6.467157e-001 1.000000e+000
      vertex   2.283688e+000 6.657396e-001 1.000000e+000
      vertex   -5.000000e+000 2.000000e+000 1.000000e+000
    endloop
  endfacet
  facet normal -0.000000e+000 0.000000e+000 1.000000e+000
    outer loop
      vertex   -5.000000e+000 2.000000e+000 1.000000e+000
      vertex   2.283688e+000 6.657396e-001 1.000000e+000
      vertex   2.336588e+000 6.806589e-001 1.000000e+000
    endloop
  endfacet
  facet normal -0.000000e+000 0.000000e+000 1.000000e+000
    outer loop
      vertex   5.000000e+000 2.000000e+000 1.000000e+000
      vertex   2.336588e+000 6.806589e-001 1.000000e+000
      vertex   2.390496e+000 6.913818e-001 1.000000e+000
    endloop
  endfacet
  facet normal 0.000000e+000 -0.000000e+000 1.000000e+000
    outer loop
      vertex   2.445079e+000 6.978421e-001 1.000000e+000
      vertex   5.000000e+000 2.000000e+000 1.000000e+000
      vertex   2.390496e+000 6.913818e-001 1.000000e+000
    endloop
  endfacet
  facet normal 0.000000e+000 0.000000e+000 1.000000e+000
    outer loop
      vertex   2.445079e+000 6.978421e-001 1.000000e+000
      vertex   2.500000e+000 7.000000e-001 1.000000e+000
      vertex   5.000000e+000 2.000000e+000 1.000000e+000
    endloop
  endfacet
  facet normal 0.000000e+000 0.000000e+000 1.000000e+000
    outer loop
      vertex   5.000000e+000 2.000000e+000 1.000000e+000
      vertex   2.500000e+000 7.000000e-001 1.000000e+000
      vertex   2.554921e+000 6.978421e-001 1.000000e+000
    endloop
  endfacet
  facet normal 0.000000e+000 -0.000000e+000 1.000000e+000
    outer loop
      vertex   2.609504e+000 6.913818e-001 1.000000e+000
      vertex   5.000000e+000 2.000000e+000 1.000000e+000
      vertex   2.554921e+000 6.978421e-001 1.000000e+000
    endloop
  endfacet
  facet normal -0.000000e+000 0.000000e+000 1.000000e+000
    outer loop
      vertex   2.609504e+000 6.913818e-001 1.000000e+000
      vertex   2.663412e+000 6.806589e-001 1.000000e+000
      vertex   5.000000e+000 2.000000e+000 1.000000e+000
    endloop
  endfacet
  facet normal 0.000000e+000 0.000000e+000 1.000000e+000
    outer loop
      vertex   5.000000e+000 2.000000e+000 1.000000e+000
      vertex   2.663412e+000 6.806589e-001 1.000000e+000
      vertex   2.716312e+000 6.657396e-001 1.000000e+000
    endloop
  endfacet
  facet normal 0.000000e+000 -0.000000e+000 1.000000e+000
    outer loop
      vertex   2.767878e+000 6.467157e-001 1.000000e+000
      vertex   5.000000e+000 2.000000e+000 1.000000e+000
      vertex   2.716312e+000 6.657396e-001 1.000000e+000
    endloop
  endfacet
  facet normal -0.000000e+000 0.000000e+000 1.000000e+000
    outer loop
      vertex   2.767878e+000 6.467157e-001 1.000000e+000
      vertex   2.817793e+000 6.237046e-001 1.000000e+000
      vertex   5.000000e+000 2.000000e+000 1.000000e+000
    endloop
  endfacet
  facet normal 0.000000e+000 0.000000e+000 1.000000e+000
    outer loop
      vertex   5.000000e+000 2.000000e+000 1.000000e+000
      vertex   2.817793e+000 6.237046e-001 1.000000e+000
      vertex   2.865749e+000 5.968481e-001 1.000000e+000
    endloop
  endfacet
  facet normal 0.000000e+000 -0.000000e+000 1.000000e+000
    outer loop
      vertex   2.911450e+000 5.663119e-001 1.000000e+000
      vertex   5.000000e+000 2.000000e+000 1.000000e+000
      vertex   2.865749e+000 5.968481e-001 1.000000e+000
    endloop
  endfacet
  facet normal -0.000000e+000 0.000000e+000 1.000000e+000
    outer loop
      vertex   2.911450e+000 5.663119e-001 1.000000e+000
      vertex   2.954614e+000 5.322842e-001 1.000000e+000
      vertex   5.000000e+000 2.000000e+000 1.000000e+000
    endloop
  endfacet
  facet normal 0.000000e+000 0.000000e+000 1.000000e+000
    outer loop
      vertex   5.000000e+000 2.000000e+000 1.000000e+000
      vertex   2.954614e+000 5.322842e-001 1.000000e+000
      vertex   2.994975e+000 4.949747e-001 1.000000e+000
    endloop
  endfacet
  facet normal 0.000000e+000 -0.000000e+000 1.000000e+000
    outer loop
      vertex   3.032284e+000 4.546136e-001 1.000000e+000
      vertex   5.000000e+000 2.000000e+000 1.000000e+000
      vertex   2.994975e+000 4.949747e-001 1.000000e+000
    endloop
  endfacet
  facet normal -0.000000e+000 0.000000e+000 1.000000e+000
    outer loop
      vertex   3.032284e+000 4.546136e-001 1.000000e+000
      vertex   3.066312e+000 4.114497e-001 1.000000e+000
      vertex   5.000000e+000 2.000000e+000 1.000000e+000
    endloop
  endfacet
  facet normal 0.000000e+000 0.000000e+000 1.000000e+000
    outer loop
      vertex   5.000000e+000 2.000000e+000 1.000000e+000
      vertex   3.066312e+000 4.114497e-001 1.000000e+000
      vertex   3.096848e+000 3.657490e-001 1.000000e+000
    endloop
  endfacet
  facet normal 0.000000e+000 -0.000000e+000 1.000000e+000
    outer loop
      vertex   3.123705e+000 3.177933e-001 1.000000e+000
      vertex   5.000000e+000 2.000000e+000 1.000000e+000
      vertex   3.096848e+000 3.657490e-001 1.000000e+000
    endloop
  endfacet
  facet normal -0.000000e+000 0.000000e+000 1.000000e+000
    outer loop
      vertex   3.123705e+000 3.177933e-001 1.000000e+000
      vertex   3.146716e+000 2.678784e-001 1.000000e+000
      vertex   5.000000e+000 2.000000e+000 1.000000e+000
    endloop
  endfacet
  facet normal 0.000000e+000 0.000000e+000 1.000000e+000
    outer loop
      vertex   5.000000e+000 2.000000e+000 1.000000e+000
      vertex   3.146716e+000 2.678784e-001 1.000000e+000
      vertex   3.165740e+000 2.163119e-001 1.000000e+000
    endloop
  endfacet
  facet normal 0.000000e+000 -0.000000e+000 1.000000e+000
    outer loop
      vertex   3.180659e+000 1.634118e-001 1.000000e+000
      vertex   5.000000e+000 2.000000e+000 1.000000e+000
      vertex   3.165740e+000 2.163119e-001 1.000000e+000
    endloop
  endfacet
  facet normal -0.000000e+000 0.000000e+000 1.000000e+000
    outer loop
      vertex   3.180659e+000 1.634118e-001 1.000000e+000
      vertex   3.191382e+000 1.095041e-001 1.000000e+000
      vertex   5.000000e+000 2.000000e+000 1.000000e+000
    endloop
  endfacet
  facet normal 0.000000e+000 0.000000e+000 1.000000e+000
    outer loop
      vertex   5.000000e+000 2.000000e+000 1.000000e+000
      vertex   3.191382e+000 1.095041e-001 1.000000e+000
      vertex   3.197842e+000 5.492137e-002 1.000000e+000
    endloop
  endfacet
  facet normal 0.000000e+000 -0.000000e+000 1.000000e+000
    outer loop
      vertex   3.200000e+000 8.572528e-017 1.000000e+000
      vertex   5.000000e+000 2.000000e+000 1.000000e+000
      vertex   3.197842e+000 5.492137e-002 1.000000e+000
    endloop
  endfacet
  facet normal -0.000000e+000 0.000000e+000 1.000000e+000
    outer loop
      vertex   3.200000e+000 8.572528e-017 1.000000e+000
      vertex   5.000000e+000 -2.000000e+000 1.000000e+000
      vertex   5.000000e+000 2.000000e+000 1.000000e+000
    endloop
  endfacet
  facet normal -0.000000e+000 0.000000e+000 1.000000e+000
    outer loop
      vertex   -5.000000e+000 2.000000e+000 1.000000e+000
      vertex   2.336588e+000 6.806589e-001 1.000000e+000
      vertex   5.000000e+000 2.000000e+000 1.000000e+000
    endloop
  endfacet
  facet normal 0.000000e+000 -0.000000e+000 -1.000000e+000
    outer loop
      vertex   3.197842e+000 5.492137e-002 0.000000e+000
      vertex   5.000000e+000 2.000000e+000 0.000000e+000
      vertex   3.200000e+000 8.572528e-017 0.000000e+000
    endloop
  endfacet
  facet normal 0.000000e+000 0.000000e+000 -1.000000e+000
    outer loop
      vertex   3.197842e+000 5.492137e-002 0.000000e+000
      vertex   3.191382e+000 1.095041e-001 0.000000e+000
      vertex   5.000000e+000 2.000000e+000 0.000000e+000
    endloop
  endfacet
  facet normal -0.000000e+000 0.000000e+000 -1.000000e+000
    outer loop
      vertex   5.000000e+000 2.000000e+000 0.000000e+000
      vertex   3.191382e+000 1.095041e-001 0.000000e+000
      vertex   3.180659e+000 1.634118e-001 0.000000e+000
    endloop
  endfacet
  facet normal 0.000000e+000 -0.000000e+000 -1.000000e+000
    outer loop
      vertex   3.165740e+000 2.163119e-001 0.000000e+000
      vertex   5.000000e+000 2.000000e+000 0.000000e+000
      vertex   3.180659e+000 1.634118e-001 0.000000e+000
    endloop
  endfacet
  facet normal 0.000000e+000 0.000000e+000 -1.000000e+000
    outer loop
      vertex   3.165740e+000 2.163119e-001 0.000000e+000
      vertex   3.146716e+000 2.678784e-001 0.000000e+000
      vertex   5.000000e+000 2.000000e+000 0.000000e+000
    endloop
  endfacet
  facet normal -0.000000e+000 0.000000e+000 -1.000000e+000
    outer loop
      vertex   5.000000e+000 2.000000e+000 0.000000e+000
      vertex   3.146716e+000 2.678784e-001 0.000000e+000
      vertex   3.123705e+000 3.177933e-001 0.000000e+000
    endloop
  endfacet
  facet normal 0.000000e+000 -0.000000e+000 -1.000000e+000
    outer loop
      vertex   3.096848e+000 3.657490e-001 0.000000e+000
      vertex   5.000000e+000 2.000000e+000 0.000000e+000
      vertex   3.123705e+000 3.177933e-001 0.000000e+000
    endloop
  endfacet
  facet normal 0.000000e+000 0.000000e+000 -1.000000e+000
    outer loop
      vertex   3.096848e+000 3.657490e-001 0.000000e+000
      vertex   3.066312e+000 4.114497e-001 0.000000e+000
      vertex   5.000000e+000 2.000000e+000 0.000000e+000
    endloop
  endfacet
  facet normal -0.000000e+000 0.000000e+000 -1.000000e+000
    outer loop
      vertex   5.000000e+000 2.000000e+000 0.000000e+000
      vertex   3.066312e+000 4.114497e-001 0.000000e+000
      vertex   3.032284e+000 4.546136e-001 0.000000e+000
    endloop
  endfacet
  facet normal 0.000000e+000 -0.000000e+000 -1.000000e+000
    outer loop
      vertex   2.994975e+000 4.949747e-001 0.000000e+000
      vertex   5.000000e+000 2.000000e+000 0.000000e+000
      vertex   3.032284e+000 4.546136e-001 0.000000e+000
    endloop
  endfacet
  facet normal 0.000000e+000 0.000000e+000 -1.000000e+000
    outer loop
      vertex   2.994975e+000 4.949747e-001 0.000000e+000
      vertex   2.954614e+000 5.322842e-001 0.000000e+000
      vertex   5.000000e+000 2.000000e+000 0.000000e+000
    endloop
  endfacet
  facet normal -0.000000e+000 0.000000e+000 -1.000000e+000
    outer loop
      vertex   5.000000e+000 2.000000e+000 0.000000e+000
      vertex   2.954614e+000 5.322842e-001 0.000000e+000
      vertex   2.911450e+000 5.663119e-001 0.000000e+000
    endloop
  endfacet
  facet normal 0.000000e+000 -0.000000e+000 -1.000000e+000
    outer loop
      vertex   2.865749e+000 5.968481e-001 0.000000e+000
      vertex   5.000000e+000 2.000000e+000 0.000000e+000
      vertex   2.911450e+000 5.663119e-001 0.000000e+000
    endloop
  endfacet
  facet normal 0.000000e+000 0.000000e+000 -1.000000e+000
    outer loop
      vertex   2.865749e+000 5.968481e-001 0.000000e+000
      vertex   2.817793e+000 6.237046e-001 0.000000e+000
      vertex   5.000000e+000 2.000000e+000 0.000000e+000
    endloop
  endfacet
  facet normal -0.000000e+000 0.000000e+000 -1.000000e+000
    outer loop
      vertex   5.000000e+000 2.000000e+000 0.000000e+000
      vertex   2.817793e+000 6.237046e-001 0.000000e+000
      vertex   2.767878e+000 6.467157e-001 0.000000e+000
    endloop
  endfacet
  facet normal 0.000000e+000 -0.000000e+000 -1.000000e+000
    outer loop
      vertex   2.716312e+000 6.657396e-001 0.000000e+000
      vertex   5.000000e+000 2.000000e+000 0.000000e+000
      vertex   2.767878e+000 6.467157e-001 0.000000e+000
    endloop
  endfacet
  facet normal 0.000000e+000 0.000000e+000 -1.000000e+000
    outer loop
      vertex   2.716312e+000 6.657396e-001 0.000000e+000
      vertex   2.663412e+000 6.806589e-001 0.000000e+000
      vertex   5.000000e+000 2.000000e+000 0.000000e+000
    endloop
  endfacet
  facet normal -0.000000e+000 0.000000e+000 -1.000000e+000
    outer loop
      vertex   5.000000e+000 2.000000e+000 0.000000e+000
      vertex   2.663412e+000 6.806589e-001 0.000000e+000
      vertex   2.609504e+000 6.913818e-001 0.000000e+000
    endloop
  endfacet
  facet normal 0.000000e+000 -0.000000e+000 -1.000000e+000
    outer loop
      vertex   2.554921e+000 6.978421e-001 0.000000e+000
      vertex   5.000000e+000 2.000000e+000 0.000000e+000
      vertex   2.609504e+000 6.913818e-001 0.000000e+000
    endloop
  endfacet
  facet normal 0.000000e+000 0.000000e+000 -1.000000e+000
    outer loop
      vertex   2.554921e+000 6.978421e-001 0.000000e+000
      vertex   2.500000e+000 7.000000e-001 0.000000e+000
      vertex   5.000000e+000 2.000000e+000 0.000000e+000
    endloop
  endfacet
  facet normal 0.000000e+000 0.000000e+000 -1.000000e+000
    outer loop
      vertex   5.000000e+000 2.000000e+000 0.000000e+000
      vertex   2.500000e+000 7.000000e-001 0.000000e+000
      vertex   2.445079e+000 6.978421e-001 0.000000e+000
    endloop
  endfacet
  facet normal 0.000000e+000 -0.000000e+000 -1.000000e+000
    outer loop
      vertex   2.390496e+000 6.913818e-001 0.000000e+000
      vertex   5.000000e+000 2.000000e+000 0.000000e+000
      vertex   2.445079e+000 6.978421e-001 0.000000e+000
    endloop
  endfacet
  facet normal -0.000000e+000 0.000000e+000 -1.000000e+000
    outer loop
      vertex   2.390496e+000 6.913818e-001 0.000000e+000
      vertex   2.336588e+000 6.806589e-001 0.000000e+000
      vertex   5.000000e+000 2.000000e+000 0.000000e+000
    endloop
  endfacet
  facet normal -0.000000e+000 0.000000e+000 -1.000000e+000
    outer loop
      vertex   5.000000e+000 2.000000e+000 0.000000e+000
      vertex   2.336588e+000 6.806589e-001 0.000000e+000
      vertex   -5.000000e+000 2.000000e+000 0.000000e+000
    endloop
  endfacet
  facet normal 0.000000e+000 -0.000000e+000 -1.000000e+000
    outer loop
      vertex   -5.000000e+000 2.000000e+000 0.000000e+000
      vertex   2.336588e+000 6.806589e-001 0.000000e+000
      vertex   2.283688e+000 6.657396e-001 0.000000e+000
    endloop
  endfacet
  facet normal 0.000000e+000 0.000000e+000 -1.000000e+000
    outer loop
      vertex   2.232122e+000 6.467157e-001 0.000000e+000
      vertex   -5.000000e+000 2.000000e+000 0.000000e+000
      vertex   2.283688e+000 6.657396e-001 0.000000e+000
    endloop
  endfacet
  facet normal -0.000000e+000 0.000000e+000 -1.000000e+000
    outer loop
      vertex   2.232122e+000 6.467157e-001 0.000000e+000
      vertex   2.182207e+000 6.237046e-001 0.000000e+000
      vertex   -5.000000e+000 2.000000e+000 0.000000e+000
    endloop
  endfacet
  facet normal 0.000000e+000 -0.000000e+000 -1.000000e+000
    outer loop
      vertex   -5.000000e+000 2.000000e+000 0.000000e+000
      vertex   2.182207e+000 6.237046e-001 0.000000e+000
      vertex   2.134251e+000 5.968481e-001 0.000000e+000
    endloop
  endfacet
  facet normal 0.000000e+000 0.000000e+000 -1.000000e+000
    outer loop
      vertex   2.088550e+000 5.663119e-001 0.000000e+000
      vertex   -5.000000e+000 2.000000e+000 0.000000e+000
      vertex   2.134251e+000 5.968481e-001 0.000000e+000
    endloop
  endfacet
  facet normal -0.000000e+000 0.000000e+000 -1.000000e+000
    outer loop
      vertex   2.088550e+000 5.663119e-001 0.000000e+000
      vertex   2.045386e+000 5.322842e-001 0.000000e+000
      vertex   -5.000000e+000 2.000000e+000 0.000000e+000
    endloop
  endfacet
  facet normal 0.000000e+000 -0.000000e+000 -1.000000e+000
    outer loop
      vertex   -5.000000e+000 2.000000e+000 0.000000e+000
      vertex   2.045386e+000 5.322842e-001 0.000000e+000
      vertex   2.005025e+000 4.949747e-001 0.000000e+000
    endloop
  endfacet
  facet normal 0.000000e+000 0.000000e+000 -1.000000e+000
    outer loop
      vertex   1.967716e+000 4.546136e-001 0.000000e+000
      vertex   -5.000000e+000 2.000000e+000 0.000000e+000
      vertex   2.005025e+000 4.949747e-001 0.000000e+000
    endloop
  endfacet
  facet normal -0.000000e+000 0.000000e+000 -1.000000e+000
    outer loop
      vertex   1.967716e+000 4.546136e-001 0.000000e+000
      vertex   1.933688e+000 4.114497e-001 0.000000e+000
      vertex   -5.000000e+000 2.000000e+000 0.000000e+000
    endloop
  endfacet
  facet normal 0.000000e+000 -0.000000e+000 -1.000000e+000
    outer loop
      vertex   -5.000000e+000 2.000000e+000 0.000000e+000
      vertex   1.933688e+000 4.114497e-001 0.000000e+000
      vertex   1.903152e+000 3.657490e-001 0.000000e+000
    endloop
  endfacet
  facet normal 0.000000e+000 0.000000e+000 -1.000000e+000
    outer loop
      vertex   1.876295e+000 3.177933e-001 0.000000e+000
      vertex   -5.000000e+000 2.000000e+000 0.000000e+000
      vertex   1.903152e+000 3.657490e-001 0.000000e+000
    endloop
  endfacet
  facet normal -0.000000e+000 0.000000e+000 -1.000000e+000
    outer loop
      vertex   1.876295e+000 3.177933e-001 0.000000e+000
      vertex   1.853284e+000 2.678784e-001 0.000000e+000
      vertex   -5.000000e+000 2.000000e+000 0.000000e+000
    endloop
  endfacet
  facet normal 0.000000e+000 -0.000000e+000 -1.000000e+000
    outer loop
      vertex   -5.000000e+000 2.000000e+000 0.000000e+000
      vertex   1.853284e+000 2.678784e-001 0.000000e+000
      vertex   1.834260e+000 2.163119e-001 0.000000e+000
    endloop
  endfacet
  facet normal 0.000000e+000 0.000000e+000 -1.000000e+000
    outer loop
      vertex   1.819341e+000 1.634118e-001 0.000000e+000
      vertex   -5.000000e+000 2.000000e+000 0.000000e+000
      vertex   1.834260e+000 2.163119e-001 0.000000e+000
    endloop
  endfacet
  facet normal -0.000000e+000 0.000000e+000 -1.000000e+000
    outer loop
      vertex   1.819341e+000 1.634118e-001 0.000000e+000
      vertex   1.808618e+000 1.095041e-001 0.000000e+000
      vertex   -5.000000e+000 2.000000e+000 0.000000e+000
    endloop
  endfacet
  facet normal 0.000000e+000 -0.000000e+000 -1.000000e+000
    outer loop
      vertex   -5.000000e+000 2.000000e+000 0.000000e+000
      vertex   1.808618e+000 1.095041e-001 0.000000e+000
      vertex   1.802158e+000 5.492137e-002 0.000000e+000
    endloop
  endfacet
  facet normal 0.000000e+000 0.000000e+000 -1.000000e+000
    outer loop
      vertex   1.800000e+000 0.000000e+000 0.000000e+000
      vertex   -5.000000e+000 2.000000e+000 0.000000e+000
      vertex   1.802158e+000 5.492137e-002 0.000000e+000
    endloop
  endfacet
  facet normal -0.000000e+000 0.000000e+000 -1.000000e+000
    outer loop
      vertex   1.800000e+000 0.000000e+000 0.000000e+000
      vertex   -5.000000e+000 -2.000000e+000 0.000000e+000
      vertex   -5.000000e+000 2.000000e+000 0.000000e+000
    endloop
  endfacet
  facet normal 0.000000e+000 -0.000000e+000 -1.000000e+000
    outer loop
      vertex   1.800000e+000 0.000000e+000 0.000000e+000
      vertex   1.802158e+000 -5.492137e-002 0.000000e+000
      vertex   -5.000000e+000 -2.000000e+000 0.000000e+000
    endloop
  endfacet
  facet normal 0.000000e+000 0.000000e+000 -1.000000e+000
    outer loop
      vertex   -5.000000e+000 -2.000000e+000 0.000000e+000
      vertex   1.802158e+000 -5.492137e-002 0.000000e+000
      vertex   1.808618e+000 -1.095041e-001 0.000000e+000
    endloop
  endfacet
  facet normal -0.000000e+000 0.000000e+000 -1.000000e+000
    outer loop
      vertex   1.819341e+000 -1.634118e-001 0.000000e+000
      vertex   -5.000000e+000 -2.000000e+000 0.000000e+000
      vertex   1.808618e+000 -1.095041e-001 0.000000e+000
    endloop
  endfacet
  facet normal 0.000000e+000 -0.000000e+000 -1.000000e+000
    outer loop
      vertex   1.819341e+000 -1.634118e-001 0.000000e+000
      vertex   1.834260e+000 -2.163119e-001 0.000000e+000
      vertex   -5.000000e+000 -2.000000e+000 0.000000e+000
    endloop
  endfacet
  facet normal 0.000000e+000 0.000000e+000 -1.000000e+000
    outer loop
      vertex   -5.000000e+000 -2.000000e+000 0.000000e+000
      vertex   1.834260e+000 -2.163119e-001 0.000000e+000
      vertex   1.853284e+000 -2.678784e-001 0.000000e+000
    endloop
  endfacet
  facet normal -0.000000e+000 0.000000e+000 -1.000000e+000
    outer loop
      vertex   1.876295e+000 -3.177933e-001 0.000000e+000
      vertex   -5.000000e+000 -2.000000e+000 0.000000e+000
      vertex   1.853284e+000 -2.678784e-001 0.000000e+000
    endloop
  endfacet
  facet normal 0.000000e+000 -0.000000e+000 -1.000000e+000
    outer loop
      vertex   1.876295e+000 -3.177933e-001 0.000000e+000
      vertex   1.903152e+000 -3.657490e-001 0.000000e+000
      vertex   -5.000000e+000 -2.000000e+000 0.000000e+000
    endloop
  endfacet
  facet normal 0.000000e+000 0.000000e+000 -1.000000e+000
    outer loop
      vertex   -5.000000e+000 -2.000000e+000 0.000000e+000
      vertex   1.903152e+000 -3.657490e-001 0.000000e+000
      vertex   1.933688e+000 -4.114497e-001 0.000000e+000
    endloop
  endfacet
  facet normal -0.000000e+000 0.000000e+000 -1.000000e+000
    outer loop
      vertex   1.967716e+000 -4.546136e-001 0.000000e+000
      vertex   -5.000000e+000 -2.000000e+000 0.000000e+000
      vertex   1.933688e+000 -4.114497e-001 0.000000e+000
    endloop
  endfacet
  facet normal 0.000000e+000 -0.000000e+000 -1.000000e+000
    outer loop
      vertex   1.967716e+000 -4.546136e-001 0.000000e+000
      vertex   2.005025e+000 -4.949747e-001 0.000000e+000
      vertex   -5.000000e+000 -2.000000e+000 0.000000e+000
    endloop
  endfacet
  facet normal 0.000000e+000 0.000000e+000 -1.000000e+000
    outer loop
      vertex   -5.000000e+000 -2.000000e+000 0.000000e+000
      vertex   2.005025e+000 -4.949747e-001 0.000000e+000
      vertex   2.045386e+000 -5.322842e-001 0.000000e+000
    endloop
  endfacet
  facet normal -0.000000e+000 0.000000e+000 -1.000000e+000
    outer loop
      vertex   2.088550e+000 -5.663119e-001 0.000000e+000
      vertex   -5.000000e+000 -2.000000e+000 0.000000e+000
      vertex   2.045386e+000 -5.322842e-001 0.000000e+000
    endloop
  endfacet
  facet normal 0.000000e+000 -0.000000e+000 -1.000000e+000
    outer loop
      vertex   2.088550e+000 -5.663119e-001 0.000000e+000
      vertex   2.134251e+000 -5.968481e-001 0.000000e+000
      vertex   -5.000000e+000 -2.000000e+000 0.000000e+000
    endloop
  endfacet
  facet normal 0.000000e+000 0.000000e+000 -1.000000e+000
    outer loop
      vertex   -5.000000e+000 -2.000000e+000 0.000000e+000
      vertex   2.134251e+000 -5.968481e-001 0.000000e+000
      vertex   2.182207e+000 -6.237046e-001 0.000000e+000
    endloop
  endfacet
  facet normal -0.000000e+000 0.000000e+000 -1.000000e+000
    outer loop
      vertex   2.232122e+000 -6.467157e-001 0.000000e+000
      vertex   -5.000000e+000 -2.000000e+000 0.000000e+000
      vertex   2.182207e+000 -6.237046e-001 0.000000e+000
    endloop
  endfacet
  facet normal 0.000000e+000 -0.000000e+000 -1.000000e+000
    outer loop
      vertex   2.232122e+000 -6.467157e-001 0.000000e+000
      vertex   2.283688e+000 -6.657396e-001 0.000000e+000
      vertex   -5.000000e+000 -2.000000e+000 0.000000e+000
    endloop
  endfacet
  facet normal 0.000000e+000 0.000000e+000 -1.000000e+000
    outer loop
      vertex   -5.000000e+000 -2.000000e+000 0.000000e+000
      vertex   2.283688e+000 -6.657396e-001 0.000000e+000
      vertex   2.336588e+000 -6.806589e-001 0.000000e+000
    endloop
  endfacet
  facet normal 0.000000e+000 0.000000e+000 -1.000000e+000
    outer loop
      vertex   5.000000e+000 -2.000000e+000 0.000000e+000
      vertex   2.336588e+000 -6.806589e-001 0.000000e+000
      vertex   2.390496e+000 -6.913818e-001 0.000000e+000
    endloop
  endfacet
  facet normal -0.000000e+000 -0.000000e+000 -1.000000e+000
    outer loop
      vertex   2.445079e+000 -6.978421e-001 0.000000e+000
      vertex   5.000000e+000 -2.000000e+000 0.000000e+000
      vertex   2.390496e+000 -6.913818e-001 0.000000e+000
    endloop
  endfacet
  facet normal 0.000000e+000 0.000000e+000 -1.000000e+000
    outer loop
      vertex   2.445079e+000 -6.978421e-001 0.000000e+000
      vertex   2.500000e+000 -7.000000e-001 0.000000e+000
      vertex   5.000000e+000 -2.000000e+000 0.000000e+000
    endloop
  endfacet
  facet normal 0.000000e+000 0.000000e+000 -1.000000e+000
    outer loop
      vertex   5.000000e+000 -2.000000e+000 0.000000e+000
      vertex   2.500000e+000 -7.000000e-001 0.000000e+000
      vertex   2.554921e+000 -6.978421e-001 0.000000e+000
    endloop
  endfacet
  facet normal -0.000000e+000 -0.000000e+000 -1.000000e+000
    outer loop
      vertex   2.609504e+000 -6.913818e-001 0.000000e+000
      vertex   5.000000e+000 -2.000000e+000 0.000000e+000
      vertex   2.554921e+000 -6.978421e-001 0.000000e+000
    endloop
  endfacet
  facet normal 0.000000e+000 0.000000e+000 -1.000000e+000
    outer loop
      vertex   2.609504e+000 -6.913818e-001 0.000000e+000
      vertex   2.663412e+000 -6.806589e-001 0.000000e+000
      vertex   5.000000e+000 -2.000000e+000 0.000000e+000
    endloop
  endfacet
  facet normal 0.000000e+000 0.000000e+000 -1.000000e+000
    outer loop
      vertex   5.000000e+000 -2.000000e+000 0.000000e+000
      vertex   2.663412e+000 -6.806589e-001 0.000000e+000
      vertex   2.716312e+000 -6.657396e-001 0.000000e+000
    endloop
  endfacet
  facet normal -0.000000e+000 -0.000000e+000 -1.000000e+000
    outer loop
      vertex   2.767878e+000 -6.467157e-001 0.000000e+000
      vertex   5.000000e+000 -2.000000e+000 0.000000e+000
      vertex   2.716312e+000 -6.657396e-001 0.000000e+000
    endloop
  endfacet
  facet normal 0.000000e+000 0.000000e+000 -1.000000e+000
    outer loop
      vertex   2.767878e+000 -6.467157e-001 0.000000e+000
      vertex   2.817793e+000 -6.237046e-001 0.000000e+000
      vertex   5.000000e+000 -2.000000e+000 0.000000e+000
    endloop
  endfacet
  facet normal 0.000000e+000 0.000000e+000 -1.000000e+000
    outer loop
      vertex   5.000000e+000 -2.000000e+000 0.000000e+000
      vertex   2.817793e+000 -6.237046e-001 0.000000e+000
      vertex   2.865749e+000 -5.968481e-001 0.000000e+000
    endloop
  endfacet
  facet normal -0.000000e+000 -0.000000e+000 -1.000000e+000
    outer loop
      vertex   2.911450e+000 -5.663119e-001 0.000000e+000
      vertex   5.000000e+000 -2.000000e+000 0.000000e+000
      vertex   2.865749e+000 -5.968481e-001 0.000000e+000
    endloop
  endfacet
  facet normal 0.000000e+000 0.000000e+000 -1.000000e+000
    outer loop
      vertex   2.911450e+000 -5.663119e-001 0.000000e+000
      vertex   2.954614e+000 -5.322842e-001 0.000000e+000
      vertex   5.000000e+000 -2.000000e+000 0.000000e+000
    endloop
  endfacet
  facet normal 0.000000e+000 0.000000e+000 -1.000000e+000
    outer loop
      vertex   5.000000e+000 -2.000000e+000 0.000000e+000
      vertex   2.954614e+000 -5.322842e-001 0.000000e+000
      vertex   2.994975e+000 -4.949747e-001 0.000000e+000
    endloop
  endfacet
  facet normal -0.000000e+000 -0.000000e+000 -1.000000e+000
    outer loop
      vertex   3.032284e+000 -4.546136e-001 0.000000e+000
      vertex   5.000000e+000 -2.000000e+000 0.000000e+000
      vertex   2.994975e+000 -4.949747e-001 0.000000e+000
    endloop
  endfacet
  facet normal 0.000000e+000 0.000000e+000 -1.000000e+000
    outer loop
      vertex   3.032284e+000 -4.546136e-001 0.000000e+000
      vertex   3.066312e+000 -4.114497e-001 0.000000e+000
      vertex   5.000000e+000 -2.000000e+000 0.000000e+000
    endloop
  endfacet
  facet normal 0.000000e+000 0.000000e+000 -1.000000e+000
    outer loop
      vertex   5.000000e+000 -2.000000e+000 0.000000e+000
      vertex   3.066312e+000 -4.114497e-001 0.000000e+000
      vertex   3.096848e+000 -3.657490e-001 0.000000e+000
    endloop
  endfacet
  facet normal -0.000000e+000 -0.000000e+000 -1.000000e+000
    outer loop
      vertex   3.123705e+000 -3.177933e-001 0.000000e+000
      vertex   5.000000e+000 -2.000000e+000 0.000000e+000
      vertex   3.096848e+000 -3.657490e-001 0.000000e+000
    endloop
  endfacet
  facet normal 0.000000e+000 0.000000e+000 -1.000000e+000
    outer loop
      vertex   3.123705e+000 -3.177933e-001 0.000000e+000
      vertex   3.146716e+000 -2.678784e-001 0.000000e+000
      vertex   5.000000e+000 -2.000000e+000 0.000000e+000
    endloop
  endfacet
  facet normal 0.000000e+000 0.000000e+000 -1.000000e+000
    outer loop
      vertex   5.000000e+000 -2.000000e+000 0.000000e+000
      vertex   3.146716e+000 -2.678784e-001 0.000000e+000
      vertex   3.165740e+000 -2.163119e-001 0.000000e+000
    endloop
  endfacet
  facet normal -0.000000e+000 -0.000000e+000 -1.000000e+000
    outer loop
      vertex   3.180659e+000 -1.634118e-001 0.000000e+000
      vertex   5.000000e+000 -2.000000e+000 0.000000e+000
      vertex   3.165740e+000 -2.163119e-001 0.000000e+000
    endloop
  endfacet
  facet normal 0.000000e+000 0.000000e+000 -1.000000e+000
    outer loop
      vertex   3.180659e+000 -1.634118e-001 0.000000e+000
      vertex   3.191382e+000 -1.095041e-001 0.000000e+000
      vertex   5.000000e+000 -2.000000e+000 0.000000e+000
    endloop
  endfacet
  facet normal 0.000000e+000 0.000000e+000 -1.000000e+000
    outer loop
      vertex   5.000000e+000 -2.000000e+000 0.000000e+000
      vertex   3.191382e+000 -1.095041e-001 0.000000e+000
      vertex   3.197842e+000 -5.492137e-002 0.000000e+000
    endloop
  endfacet
  facet normal -0.000000e+000 -0.000000e+000 -1.000000e+000
    outer loop
      vertex   3.200000e+000 8.572528e-017 0.000000e+000
      vertex   5.000000e+000 -2.000000e+000 0.000000e+000
      vertex   3.197842e+000 -5.492137e-002 0.000000e+000
    endloop
  endfacet
  facet normal 0.000000e+000 0.000000e+000 -1.000000e+000
    outer loop
      vertex   3.200000e+000 8.572528e-017 0.000000e+000
      vertex   5.000000e+000 2.000000e+000 0.000000e+000
      vertex   5.000000e+000 -2.000000e+000 0.000000e+000
    endloop
  endfacet
  facet normal 0.000000e+000 0.000000e+000 -1.000000e+000
    outer loop
      vertex   -5.000000e+000 -2.000000e+000 0.000000e+000
      vertex   2.336588e+000 -6.806589e-001 0.000000e+000
      vertex   5.000000e+000 -2.000000e+000 0.000000e+000
    endloop
  endfacet
endsolid
