solid ascii
  facet normal -1.776357e-016 1.000000e+000 0.000000e+000
    outer loop
      vertex   5.000000e+000 2.000000e+000 0.000000e+000
      vertex   -5.000000e+000 2.000000e+000 0.000000e+000
      vertex   5.000000e+000 2.000000e+000 1.000000e+000
    endloop
  endfacet
  facet normal -1.776357e-016 1.000000e+000 0.000000e+000
    outer loop
      vertex   5.000000e+000 2.000000e+000 1.000000e+000
      vertex   -5.000000e+000 2.000000e+000 0.000000e+000
      vertex   -5.000000e+000 2.000000e+000 1.000000e+000
    endloop
  endfacet
  facet normal 1.000000e+000 2.220446e-016 8.881784e-016
    outer loop
      vertex   5.000000e+000 -2.000000e+000 0.000000e+000
      vertex   5.000000e+000 2.000000e+000 0.000000e+000
      vertex   5.000000e+000 -2.000000e+000 1.000000e+000
    endloop
  endfacet
  facet normal 1.000000e+000 -0.000000e+000 0.000000e+000
    outer loop
      vertex   5.000000e+000 -2.000000e+000 1.000000e+000
      vertex   5.000000e+000 2.000000e+000 0.000000e+000
      vertex   5.000000e+000 2.000000e+000 1.000000e+000
    endloop
  endfacet
  facet normal 2.886580e-016 -1.000000e+000 0.000000e+000
    outer loop
      vertex   -5.000000e+000 -2.000000e+000 0.000000e+000
      vertex   5.000000e+000 -2.000000e+000 0.000000e+000
      vertex   -5.000000e+000 -2.000000e+000 1.000000e+000
    endloop
  endfacet
  facet normal 2.664535e-016 -1.000000e+000 -2.220446e-016
    outer loop
      vertex   -5.000000e+000 -2.000000e+000 1.000000e+000
      vertex   5.000000e+000 -2.000000e+000 0.000000e+000
      vertex   5.000000e+000 -2.000000e+000 1.000000e+000
    endloop
  endfacet
  facet normal -1.000000e+000 -2.220446e-016 0.000000e+000
    outer loop
      vertex   -5.000000e+000 2.000000e+000 0.000000e+000
      vertex   -5.000000e+000 -2.000000e+000 0.000000e+000
      vertex   -5.000000e+000 2.000000e+000 1.000000e+000
    endloop
  endfacet
  facet normal -1.000000e+000 -2.220446e-016 0.000000e+000
    outer loop
      vertex   -5.000000e+000 2.000000e+000 1.000000e+000
      vertex   -5.000000e+000 -2.000000e+000 0.000000e+000
      vertex   -5.000000e+000 -2.000000e+000 1.000000e+000
    endloop
  endfacet
  facet normal 0.000000e+000 -0.000000e+000 1.000000e+000
    outer loop
      vertex   -5.000000e+000 -2.000000e+000 1.000000e+000
      vertex   5.000000e+000 -2.000000e+000 1.000000e+000
      vertex   -5.000000e+000 2.000000e+000 1.000000e+000
    endloop
  endfacet
  facet normal -0.000000e+000 0.000000e+000 1.000000e+000
    outer loop
      vertex   -5.000000e+000 2.000000e+000 1.000000e+000
      vertex   5.000000e+000 -2.000000e+000 1.000000e+000
      vertex   5.000000e+000 2.000000e+000 1.000000e+000
    endloop
  endfacet
  facet normal 0.000000e+000 -0.000000e+000 -1.000000e+000
    outer loop
      vertex   -5.000000e+000 2.000000e+000 0.000000e+000
      vertex   5.000000e+000 2.000000e+000 0.000000e+000
      vertex   -5.000000e+000 -2.000000e+000 0.000000e+000
    endloop
  endfacet
  facet normal 0.000000e+000 0.000000e+000 -1.000000e+000
    outer loop
      vertex   -5.000000e+000 -2.000000e+000 0.000000e+000
      vertex   5.000000e+000 2.000000e+000 0.000000e+000
      vertex   5.000000e+000 -2.000000e+000 0.000000e+000
    endloop
  endfacet
endsolid
